<svg version="1" xmlns="http://www.w3.org/2000/svg" width="1200" height="1200" viewBox="0 0 900.000000 900.000000"><path d="M337.1 102.6c-6.1 1.9-10.6 5.7-14.1 11.7-3.8 6.7-4.2 15.5-.9 22 1.9 3.6 8.3 12.2 11.5 15.2.5.5 2.8 3.2 4.9 6 2.2 2.7 5.4 6.6 7.2 8.5 1.7 1.9 4.2 4.8 5.4 6.5 1.3 1.6 5 6.2 8.4 10.1 3.3 3.9 8.5 10.1 11.5 13.8 3 3.8 6.2 7.6 7 8.6.8 1 5.6 6.6 10.5 12.5 5 5.9 11.9 14.2 15.5 18.5 3.6 4.2 9 10.7 12 14.5 3 3.7 6 7.3 6.6 7.9 1.4 1.5 31.2 37.2 34.4 41.2 1.4 1.7 11.5 13.9 22.5 27 11 13.2 21.6 25.9 23.7 28.4 2 2.5 7 8.5 11.2 13.5 4.2 4.9 7.6 9.7 7.6 10.5 0 .8-3.4 5.5-7.6 10.5-4.2 4.9-9.2 11-11.2 13.5-2.1 2.5-12.7 15.3-23.7 28.4-11 13.1-21.1 25.3-22.5 27-1.3 1.7-5.1 6.3-8.5 10.2-3.3 3.9-9.8 11.7-14.5 17.4-4.7 5.6-9.4 11.3-10.5 12.5-1.1 1.3-4.5 5.3-7.5 9.1-3 3.7-8.2 9.9-11.5 13.8-3.4 3.9-7.1 8.4-8.4 10.1-1.2 1.6-3.7 4.6-5.5 6.5-1.7 1.9-5 5.7-7.2 8.5-2.1 2.7-4.9 6.1-6.1 7.5-5.1 6.1-10.1 12-13.8 16.5-2.2 2.7-5.4 6.5-7.1 8.4-1.6 2-4 4.9-5.3 6.6-1.2 1.6-3.7 4.6-5.4 6.5-1.8 1.9-5.2 6-7.7 9s-4.7 5.7-5 6c-.3.3-2.3 2.8-4.6 5.5-6.4 7.9-8.4 12.5-8.4 19.8 0 5.3.5 7.1 3.3 11.7 1.7 3 5.1 6.8 7.5 8.4 4 2.9 4.9 3.1 13.5 3.1 10.8 0 14.3-1.6 20.4-9.3 2.1-2.6 4.4-5.4 5.3-6.3 1.6-1.7 2.7-3 10-11.9 5.9-7.2 8.3-10 9.5-11.4.6-.6 3-3.6 5.5-6.6 5.6-6.8 8.2-9.9 9.5-11.4.6-.6 3-3.6 5.5-6.6 2.5-3 5.9-7.1 7.7-9 1.7-1.9 4.2-4.9 5.4-6.5 1.3-1.7 3.7-4.6 5.3-6.6 1.7-1.9 4.9-5.7 7.1-8.4 2.2-2.7 5.7-7 7.9-9.5 2.1-2.5 4.5-5.4 5.5-6.5 8.4-10.3 11-13.5 13.8-16.5 1.7-1.9 4.2-4.9 5.5-6.5 1.2-1.7 7.2-8.9 13.1-16 12.8-15.3 12.9-15.4 18.7-22.5 2.5-3 5.9-7.1 7.7-9 1.7-1.9 4.2-4.9 5.4-6.5 1.3-1.7 5-6.2 8.4-10.1 3.3-3.9 8.5-10.1 11.5-13.8 3-3.8 6.4-7.8 7.5-9.1 1.1-1.2 5.8-6.9 10.5-12.5s11.6-13.9 15.4-18.3c3.7-4.5 7.9-9.7 9.2-11.7 4.8-7.4 4.8-20.6 0-28-1.3-2-5.5-7.2-9.2-11.7-3.8-4.4-10.7-12.7-15.4-18.3-4.7-5.6-9.4-11.3-10.5-12.5-1.1-1.3-4.5-5.3-7.5-9.1-3-3.7-8.2-9.9-11.5-13.8-3.4-3.9-7.1-8.5-8.4-10.1-1.2-1.7-3.7-4.6-5.5-6.5-1.7-1.9-5-5.8-7.2-8.5-2.1-2.8-4.9-6.1-6.1-7.5-4.2-4.9-23.8-28.5-26.1-31.5-1.3-1.7-3.8-4.6-5.5-6.5-1.8-1.9-5.2-6-7.7-9-5.8-7.1-5.9-7.2-18.7-22.5-5.9-7.2-11.9-14.4-13.1-16-1.3-1.7-3.8-4.6-5.5-6.5-2.8-3-5.4-6.2-13.8-16.5-1-1.1-3.4-4-5.5-6.5-2.2-2.5-5.7-6.8-7.9-9.5-3.8-4.6-5.4-6.5-15-18-2.2-2.6-5.3-6.4-7-8.4-6.8-8.3-11.3-11.9-16.8-13.5-6.5-1.9-8.7-1.9-14.6 0z"/></svg>