<svg version="1" xmlns="http://www.w3.org/2000/svg" width="1200" height="1200" viewBox="0 0 900.000000 900.000000"><path d="M429.5 95.6c-5 2.5-162.4 160.3-164.6 164.9-2.3 5-2.3 6.7-.2 11.3 2.2 4.9 4.5 7 9.6 8.8 3.5 1.2 5 1.3 8.7.3 4.1-1.1 10.3-7 69.2-65.7 35.6-35.5 65-64.3 65.3-64.1.3.3.5 87.2.5 193s.3 220.9.7 255.8l.6 63.4 2.9 3.3c3.5 3.9 9.9 5.7 15.6 4.2 4.6-1.2 7.4-3.4 9.6-7.6 1.5-2.8 1.6-24.9 1.6-259.6 0-141.1.4-256.7.8-257 .5-.3 30.9 29.6 67.7 66.4 73.3 73.3 70.4 70.8 79.2 68 4.8-1.6 7-3.5 9.4-8.2 2.3-4.6 2.4-7.9.3-12.4-1.8-3.7-156-158.7-162.8-163.6-4.5-3.2-9.4-3.7-14.1-1.2z"/></svg>