<svg version="1" xmlns="http://www.w3.org/2000/svg" width="800" height="800" viewBox="0 0 600.000000 600.000000"><g fill="#fff"><path d="M290 25.2c0 6.4-2.7 16.9-4.8 19-.7.7-1.2 1.6-1.2 2 0 1.5-8.3 12.7-13 17.7-3.9 4.1-14 16.2-18.1 21.6-9.3 12.5-11.6 22.1-8.5 36.6 3.3 15.9 14 29.5 29.4 37.5 10.3 5.4 13.8 4.4 6.7-1.8-5.4-4.7-8.5-11.3-8.5-17.9 0-5.7 2.3-10.6 8-16.9 9.4-10.5 12.4-15.1 13.5-20.9 1.6-7.9 3.6-7.9 10.7-.2 5.4 5.8 13.6 17.4 16.8 23.7.9 1.7 2.4 5.6 3.3 8.5 1.7 5.3 1.7 5.7-.3 12-1.1 3.6-3.1 7.8-4.5 9.3-1.4 1.5-2.5 3.1-2.5 3.6s-.8 1.4-1.7 1.9c-1 .6-1.3 1.1-.6 1.1.6 0 1.5-.5 1.8-1 .3-.6 1.3-1 2.2-1 5.1 0 17.6-9.1 24-17.5 3.9-5.2 5.9-8.9 8.8-16.5 2.4-6.3 2.4-22.5.1-28.3-2.7-6.5-4.7-11.1-5.7-12.7-.4-.8-2-3.8-3.4-6.5-3.2-6.3-4.3-8.1-17.2-26.9-10.9-16-27.9-32.6-33.2-32.6-1.9 0-2.1.6-2.1 6.2zM134.2 59.2c-.7.7-1.2 3.4-1.2 6.1 0 11-4.5 19.6-18.4 35-17.8 20-22.6 28.4-22.6 40 0 19.1 13.3 37.6 32 44.4 4.2 1.5 7.5 1.7 4.5.2-3.5-1.8-9.2-10.2-10.4-15.4-1.9-8 .3-12.9 11.3-25 2.6-2.7 4.6-5.5 4.6-6.1 0-.6.7-1.7 1.4-2.4.8-.6 1.6-3 1.8-5.3.2-2.2.9-4.2 1.6-4.5 3-1 16.1 15.3 22.2 27.7 5.2 10.5 3.6 20.9-4.4 27.3-1.8 1.5-1.9 1.8-.5 2.3 4.2 1.6 22.2-11.7 26.3-19.4 6.5-12 8.3-21.3 6.3-31.2-.8-3.6-1.9-7.4-2.5-8.5-.5-1-2.2-4.4-3.6-7.4-9.7-20.4-32.5-50.2-43.8-57.3-3.2-2-3.1-2-4.6-.5zM446.1 60.2c-.5 1.3-.6 3.8-.4 5.5.6 3.9-2 11.9-6.1 18.8-2.4 3.9-19.8 25.2-22.6 27.5-2.1 1.8-7.1 9.4-9.5 14.5-5.2 10.9-4.4 21 2.8 35.4 2.2 4.3 5.4 8.3 10.1 12.7 3.8 3.5 7.4 6.4 8 6.4.7 0 1.7.5 2.4 1.2 1.4 1.4 8.1 3.8 10.7 3.8 1.8-.1 1.9-.1.2-1.1-2.3-1.3-5.6-4.8-8.6-8.9-1.9-2.6-2.4-4.6-2.5-10-.1-6.2.2-7.2 3.6-12.1 2.1-3 5.5-7.2 7.7-9.4s4-4.5 4.1-5.1c0-.6.7-1.7 1.5-2.4s1.5-2.9 1.5-4.9c0-5.5 1.2-6.8 4.4-4.8 5.6 3.7 13.3 13.6 19.8 25.7 2.5 4.5 3 6.7 3.1 12.2 0 7-1 9.6-6 14.9-5.8 6.3 3.4 3.6 13.2-3.9 14.9-11.3 21.5-30 16.7-47.4-1.4-5.3-9-20.3-13.9-27.6-2.4-3.5-4.3-6.5-4.3-6.8 0-.9-12.2-16.7-16.1-20.9-2.1-2.2-4.8-5.2-6.2-6.6-2.7-3.1-10.6-8.9-11.9-8.9-.5 0-1.2 1-1.7 2.2zM272.5 182.2c-.3.7-.6 18.6-.7 39.8l-.3 38.5h-104l-.5-26-.5-26-26.2-.3c-20.7-.2-26.3 0-26.3 1-.1.7 0 11.5 0 24s-.2 23.8-.6 25.1l-.6 2.5-26.6.4c-24.7.4-27 .6-31.2 2.6-7.9 3.7-15.3 12.1-18.3 20.7-1.6 4.5-1.7 9.8-1.5 54l.3 49 7.3.3 7.3.3 3.2-3.7c14.4-16.6 26.9-25.5 43.2-30.8 7.1-2.3 26.2-2.2 33 .2 5 1.8 16.3 7.1 20 9.5 1.7 1.1 3.9 2.4 12 7.4 1.1.7 2.9 1.7 4 2.3 1.1.6 3.4 1.9 5 3 1.7 1.1 6.4 3.6 10.5 5.7 7.2 3.6 7.9 3.7 18 3.7 12.7 0 15.7-1.1 37.5-13.9 27.1-15.9 35.2-18.6 58-19.2 16.4-.5 20.6.1 32 4.4 5.1 1.9 17.1 7.8 21 10.3 1.7 1.1 3.9 2.4 5 3 1.1.6 3.5 2 5.4 3.1 14.1 8.5 23.3 11.8 34.5 12.5 13.6.9 25.5-1.9 36.6-8.6 40.4-24.2 43-25.3 58.1-24.8 11.3.4 19.6 3 28.4 8.8 1.7 1.1 3.7 2.3 4.5 2.7 2.9 1.3 18.2 13.2 24.2 18.8l6 5.6 6.1-.3 6.2-.3.3-49.5c.2-49 .2-49.6-2-55.5-2.7-7.3-10-15.1-17.3-18.5-4.8-2.2-6.3-2.4-31.7-2.8l-26.8-.4v-25.7c0-18.7-.3-26-1.2-26.9-1.7-1.7-49.9-1.7-51.6 0-.9.9-1.2 8.3-1.2 27V261h-52.4c-42.5 0-52.6-.3-53.5-1.3-.7-1-1.2-13.5-1.3-39.8l-.3-38.4-25.3-.3c-19.7-.2-25.4 0-25.7 1zM92 393c-12.7 3.6-21.5 7.5-28.5 12.7l-3 2.1-.5 56.4-.5 56.3-12 .6c-6.6.3-13.6.9-15.5 1.4-5.2 1.2-13.2 6.7-17.1 11.6-6.3 8-6.9 10.3-6.9 27.4V577l290.8-.2 290.7-.3.3-13.4c.3-15.2-.9-20.4-6.4-27.8-7.8-10.5-16.7-14.2-34.4-14.3-5.2 0-10.1-.4-10.7-.8-1-.6-1.3-13.6-1.5-57.1l-.3-56.3-7-3.5c-19.3-9.7-29.5-12.6-42.5-12-9.5.4-12.6 1.2-23.9 6.3-3.1 1.4-6.9 3.2-8.6 3.9-1.6.7-5.9 2.7-9.5 4.3-3.6 1.6-8.5 3.7-11 4.7-2.5.9-6 2.3-7.8 3.1-1.8.8-4.1 1.4-5.1 1.4s-3.6.8-5.7 1.7c-3.1 1.3-7 1.6-19.9 1.6-9.8-.1-17.2-.5-19-1.3-1.6-.6-4.8-1.5-7-2-7.1-1.5-15.3-4.7-33.7-13.4-5.4-2.5-10.2-4.6-10.7-4.6s-2.2-.6-3.8-1.4c-7.1-3.5-13.2-4.6-25.1-4.6-6.6 0-13.3.5-14.9 1.1-1.5.6-4.6 1.4-6.8 1.9-2.2.4-5.6 1.4-7.5 2-8.6 3.1-18.3 6.8-22.7 8.6-1.8.8-4.8 2-6.5 2.8-6.3 2.6-16.2 6.3-24.8 9.2-4.1 1.4-8.3 1.8-16.6 1.8-11-.1-17.5-1.4-24.7-5-1.6-.8-3.3-1.4-3.8-1.4-.6 0-9.2-4-19.2-8.9s-20.1-9.6-22.5-10.5c-6-2.3-25.4-2-34.2.4z"/></g></svg>