<svg version="1" xmlns="http://www.w3.org/2000/svg" width="266.667" height="266.667" viewBox="0 0 200.000000 200.000000"><path d="M97 8.5c0 3.6-2.5 8-8 14.5-4.8 5.6-8 10.8-8 13.2 0 6.3 4.9 13.7 11.1 16.8 4.4 2.3 7.8 2.7 3.7.4-5.8-3.1-6.2-7.4-1.3-13.5 1.9-2.4 3.5-5.4 3.5-6.7 0-3.2 1.4-2.7 4.8 1.5 6.7 8.5 7.6 14.4 2.9 17.9-2 1.5-2 1.6-.2 1 3.9-1.4 8.4-5.1 10.4-8.7 4.3-7.6 1.9-15.7-8.6-29.7-4.9-6.4-7.9-9.2-9.7-9.2-.3 0-.6 1.1-.6 2.5zm7.9 8.2c8.5 10 12.2 20.6 9.1 26.4-1.2 2.2-3 2.5-3 .5 0-2.2-7.1-12.3-9.6-13.7-2-1-2.7-1-4.4.6-1.1 1-2 2.4-2 3 0 .7-1.3 2.9-3 5-1.6 2-3.2 4.6-3.6 5.8-.6 2-.7 2-2 .2-.8-1-1.4-4.2-1.4-7.1 0-4.9.4-5.7 5.6-12.1 3.1-3.7 6.3-8.3 7.2-10.1.9-1.7 1.9-3.2 2.3-3.2.4 0 2.6 2.1 4.8 4.7zM44.9 19.2c0 .2-.2 1.7-.3 3.5-.4 3.2-.8 4-8.4 13.3-2.3 2.8-4.5 6.3-4.8 7.6-1.7 6.7 3.4 14.9 11.1 17.9 3.6 1.4 3.8 1.4 2.1 0-1.1-.8-2.3-1.5-2.6-1.5-.7 0-3-4.5-3-6 0-.4 1.6-2.7 3.5-5s3.5-5.1 3.5-6.2c0-1.8.2-1.9 1.7-.7 2.8 2.4 7.3 10.2 7.3 12.8 0 1.4-1 3.6-2.2 4.9l-2.3 2.5 3.2-1.7c7.4-3.7 11.1-11 9.3-17.7-2.1-7.6-17.1-27.3-18.1-23.7zm7.3 10.5C57.6 36.9 60 42 60 46.5c0 6.4-1.5 7.5-3.8 2.8-2.6-5-7.5-10.3-9.6-10.3-.8 0-2.3 1.4-3.2 3.2-.9 1.7-2.8 4.8-4.4 6.9-3.2 4.4-5 3.7-5-2.1 0-3.7 1.5-6.5 6.3-11.5 1.5-1.7 3.7-4.7 4.8-6.8 1.1-2 2.3-3.7 2.7-3.7.4 0 2.4 2.1 4.4 4.7zM149 21.6c0 3.4-1.4 5.8-7.7 13.2-2.9 3.5-5.6 7.4-5.9 8.8-1.9 7.6 4.2 16.1 13.6 18.9 2 .6 1.8.3-1-1.7-4.8-3.3-5.1-7.1-1-12.2 1.6-2.1 3-4.8 3-5.9 0-2 0-2 2.1-.1 3.4 3 6.9 9.1 6.9 12.1 0 1.5-1 3.8-2.2 5.1l-2.3 2.4 4.1-2c4.5-2.3 8-7 9-12.1.5-2.5-.1-4.8-2.9-10.4-3.4-6.8-12.8-18.7-14.8-18.7-.5 0-.9 1.2-.9 2.6zm10 12.1c4.4 6.6 5 8.1 5 12.8 0 6.5-1.3 7.7-3.5 3.1-.9-1.9-3.2-5.2-5-7.3-2.8-3.2-3.6-3.6-5.2-2.7-1 .6-2.3 2-2.8 3-.6 1-2.3 3.9-4 6.2-2.6 4-3 4.2-4.2 2.6-2.7-3.7-1.6-7.6 4.7-15.4 3.3-4.1 6.3-8.5 6.6-9.8.8-3 2.1-1.9 8.4 7.5zM91 73.5V87H56V69H38v18h-9.5c-9 0-9.6.1-12.7 2.9l-3.3 2.9-.3 18.1-.3 18.1h2.6c1.7 0 3.6-1.2 5.6-3.5 1.7-1.9 5.5-4.6 8.5-6.1 8.1-4 13.5-3.2 25.2 3.5 11.8 6.9 14.5 6.9 25.1.8 8.9-5.2 13.6-6.7 20.7-6.7 6.4 0 10.1 1.3 18.9 6.4 6.4 3.7 7.6 4.1 14 4.1 6.6 0 7.5-.3 15.4-4.9 13.3-7.8 19.5-7.3 31.3 2.5 2.6 2.1 5.6 3.9 6.7 3.9 2 0 2.1-.5 2.1-17.6V93.8l-3.4-3.4c-3.4-3.4-3.4-3.4-13-3.4H162V69h-18v18h-36.2l.4-13.5.3-13.5H91v13.5zm14 1.3c0 15.9-1 15.2 20.7 15.2 21.6 0 21.3.1 21.3-10.7V72h12v7.2c0 10 .9 10.8 12 10.8 7.3 0 9.2.3 11.4 2.1l2.6 2v15.5c0 8.5-.2 15.4-.5 15.4s-2.9-1.8-5.8-4c-6.5-4.9-11.5-7-16.4-7-3.6 0-5.9 1-20.8 8.7-7.3 3.7-13.5 2.9-24-3.1-9.2-5.3-12.1-6-21.5-5.4-5.2.4-8.1 1.3-12.6 3.8-15.5 8.6-17.8 8.8-28.4 2.4-9.2-5.6-11.4-6.4-17.3-6.4-6.5 0-12.2 2.6-18.1 8.1l-4.6 4.2V94.1l2.6-2c2.2-1.8 4.1-2.1 11.5-2.1C40.4 90 41 89.4 41 79.4V72h12v7.2C53 90.1 52.8 90 73.3 90 95 90 94 90.7 94 75.3V64h11v10.8z"/><path d="M31 130.6c-.8.3-3.7 1.5-6.3 2.6l-4.8 2.2.1 18.9.2 18.9-4.9.2C6.7 173.9 3 178 3 187v5h194v-5.1c0-9-4.3-13.4-13.2-13.4H179v-38.6l-4.7-2.1c-8.5-3.8-12.6-3.6-23.8 1.3-15.6 6.7-24.6 6.5-39-1-4.1-2.1-6.4-2.5-12.5-2.5-6.4 0-8.9.6-17 3.9-5.7 2.3-11.8 4-15.2 4.3-5.1.4-6.6 0-15.6-4.2-9.5-4.4-15.2-5.6-20.2-4zm19.4 7.1c13.3 6.2 17.1 6.3 31.6.3 14.2-5.8 19.4-5.9 30.6-.8 15.3 6.9 23 7.1 36.6 1 13.2-6 15.1-6.2 23.6-2.7l3.2 1.4v18c0 16.8.1 18.2 2 20.1 1.4 1.4 3.3 2 6.4 2 6.2 0 9.6 2.9 9.6 8.1v3.9H6v-3.7c0-5.4 3.1-8.3 8.8-8.3 7.3 0 8.2-1.5 8.3-13.4.1-5.6.4-13.9.7-18.6l.7-8.5 5-1.7c7.5-2.6 10-2.2 20.9 2.9z"/></svg>