<svg version="1" xmlns="http://www.w3.org/2000/svg" width="388" height="256" viewBox="0 0 291.000000 192.000000"><g fill="#fff"><path d="M120.2 12.5c-4.7 4.7-9.3 8.5-10.3 8.5s-1.9-1.1-2.3-2.5c-.6-2.5-1-2.6-6.4-2.3-5 .3-5.7.6-6 2.5-.2 1.3-.6 2.3-1 2.4-9 .7-13.7 3.3-14.7 7.9-1 4.7-1.3 63.3-.3 68.2.7 3.7 1.7 5.1 4.7 7.2l3.8 2.6 60.7-.2 60.7-.3 2.9-3.5 2.9-3.5.1-35.7V28l-2.9-3.2-2.9-3.3-12.4-.2c-6.8-.1-12.7-.2-13.1-.2-.4-.1-4.6-3.9-9.3-8.6L165.9 4h-37.1l-8.6 8.5zm33.6 20.7c5.8 1.4 8.5 3 14 8.2 6.4 6.1 8.6 11.4 8.6 21.1 0 9-1.6 12.9-7.8 20.1-4.4 5.1-9.9 8.1-17.1 9.2-6.2 1-15-.3-17.6-2.4-.8-.8-2-1.4-2.5-1.4-1.4 0-8.9-8-10.7-11.5-3.7-7.3-4.9-13-3.6-18 .6-2.2 1.3-5.1 1.6-6.5.3-1.4 2.1-4.5 4-6.9 8-10.5 19.3-14.9 31.1-11.9zm31.6.4c2.2.8 2 3.1-.3 4.3-2.6 1.4-5-1.2-3.1-3.4 1.4-1.7 1.3-1.7 3.4-.9z"/><path d="M138.5 39.1c-13.4 5.4-20.1 20.2-14.5 32.4 7.7 16.8 27.2 20.9 40 8.4 4.8-4.5 8-11.9 8-18.1 0-9-8-19.7-17.2-22.8-7.1-2.5-9.9-2.4-16.3.1zm16.3 16.4c4.4 4.8 4.4 9.1-.2 13.9-2.9 3.1-4 3.6-7.7 3.6-7.3-.1-11.7-5.6-10.4-13.1.6-3.5 2.7-5.8 7.5-8.1 2.9-1.4 7.5.2 10.8 3.7zM28.5 72.8c-5.3 2.7-16 14.3-19.1 20.7-2.5 5.1-2.9 7.2-2.9 14s.4 8.9 2.9 14c3 6.3 11.1 15 18.9 20.3 5.4 3.8 18.7 10.8 23.6 12.6 4.5 1.6 15.6 5.4 19.6 6.6 11.5 3.5 36.3 7.6 50.9 8.5 5.4.3 10.3.8 10.7 1.1.5.3.9 4.1.9 8.4 0 4.3.4 8.1.9 8.4.4.3 5.3-3.6 10.7-8.7 14-13.1 16.4-15.5 16.4-16.5 0-.5-2.8-3.5-6.2-6.7-3.5-3.1-9.4-8.6-13.1-12.2-4.1-4-7.2-6.2-7.7-5.7s-1 4.5-1.2 8.9l-.3 8-11.5-.3c-19.3-.5-41.8-5-61.5-12.4-20.8-7.8-35.1-18.4-41.9-30.8-2.6-4.8-2.7-17.1-.2-22 2-3.9 7.6-11 11.9-15.3 3.1-3 2.7-3.2-1.8-.9zM259 73.6c0 .3 2 2.8 4.4 5.5 6.9 7.7 8.9 12.2 8.9 20.4 0 8.5-2.2 13.4-9.6 21.2-14.5 15.4-37.5 25-75.7 31.6l-12.5 2.2-.3 6.4c-.2 3.5.1 6.8.7 7.4 1.3 1.3 30.8-3.7 42.6-7.3 13.8-4.2 26.8-9.4 32.8-13 1.7-1.1 3.9-2.3 4.7-2.7.8-.3 4.2-2.7 7.5-5.2 24.1-18.4 27-38.6 8.2-58.4-3-3.1-5.9-5.7-6.5-5.7-.5 0-1.2-.7-1.6-1.5-.5-1.4-3.6-2.2-3.6-.9z"/></g></svg>