<svg version="1" xmlns="http://www.w3.org/2000/svg" width="1200" height="1252" viewBox="0 0 900.000000 939.000000"><g fill="#fff"><path d="M324 1.2c0 .7-1.6 2.5-3.5 4.1-4.4 3.5-6 9-4.5 14.9.9 3.3 7.8 12.9 12 16.8 2.8 2.5 10.9 14.6 14.4 21.3 4.7 9.2 5.9 14 5.9 23.2 0 14.3-5.5 24.1-29.8 53-5.6 6.6-11.2 13.6-12.5 15.5-1.4 1.9-3.5 4.6-4.7 6-1.3 1.3-2.3 3.2-2.3 4.1 0 .9-.6 2.1-1.3 2.7-1.3 1.1-6.6 11.7-8.6 17.2-2.1 5.8-4.4 19.1-4.4 25 .2 19.2 9 40.3 26.3 63 7.6 9.9 9.6 11.5 15.5 12.9 4.2 1 5.7.9 8.6-.3 5.3-2.2 8.9-7.5 8.9-13.1 0-5.1-.4-5.9-10.5-19.5-8.1-11.1-8.7-12-11.6-18-1.2-2.5-2.6-5.3-3.1-6.4-3.7-7.2-5.1-23-2.7-30.3 1.5-4.7 4.4-10.9 7-14.8 1-1.7 2.2-3.7 2.6-4.5.7-1.6 7.4-10.6 11.6-15.5 1.4-1.7 5.4-6.4 8.9-10.5 11.2-13.2 21.8-28 21.8-30.5 0-.8.4-1.6.9-1.9.5-.4 1.8-2.5 2.8-4.9 7.4-16.4 8.6-35.8 3.2-52-2.1-6.3-6.8-16.4-9.9-21.2-1.1-1.7-2.3-3.7-2.7-4.5-2.5-5.5-21.6-27.7-25-29.1-1.3-.5-2.3-1.5-2.3-2.4 0-1.2-1.2-1.5-5.5-1.5-3.7 0-5.5.4-5.5 1.2zM453 1.4c0 .8-1.2 2.1-2.7 2.8-2.8 1.3-7.3 8.8-7.3 12.1 0 3.3 4.8 11.2 10.9 17.7 5.9 6.3 14.1 17.7 16.1 22.3.6 1.2 1.4 2.9 1.9 3.7 4.1 7.3 4.6 9.4 4.5 20.9-.1 11.4-.1 11.7-3.8 18.6-2 3.8-4.2 7.9-4.9 9-1.7 2.7-10.8 14.9-11.6 15.5-2.7 1.9-26.9 32.6-28.4 36-.4.8-1.6 2.8-2.6 4.5-2.8 4.3-6.1 11-6.1 12.2 0 .6-.6 2.4-1.4 4-3.9 7.7-5.6 26.8-3.2 34 .9 2.6 1.6 6.3 1.6 8.3 0 2 .7 4.5 1.5 5.6.8 1 1.5 2.7 1.5 3.7 0 1.7 1.4 4.9 4.1 9.7.5.8 1.4 2.6 1.9 3.8.9 2.1 4.7 7.9 13.2 20.4 1.4 2 4.6 5.9 7.2 8.6 8.5 8.9 18.2 8.9 24.6 0 5.1-7 3.9-11.7-6.1-24.3-5.7-7.1-14.9-21.7-14.9-23.6 0-.6-.6-2-1.2-3.2-1.9-3.4-4-11.6-4.5-18.1-.5-5.6 1.3-14 3.8-18.6.4-.8 1.8-3.5 3-5.9 3.6-7.1 8.2-13.5 20.7-28.4 11-13.3 21.4-26.8 23.7-30.9 2.4-4.3 8.3-16.6 9.5-19.8 1.8-4.9 2.9-17.9 2.3-28-.8-14.9-6.9-29.2-20.4-48-4.7-6.6-6.4-8.6-14.4-16.5-4.3-4.4-7.8-8.3-7.7-8.8.1-.4-2.3-.7-5.3-.7-4.1 0-5.5.4-5.5 1.4zM581.6 1.5c-.3.8-1.6 2-2.8 2.6-5.6 2.6-9.2 14.7-5.3 17.9.8.7 1.5 1.7 1.5 2.2 0 .6 2.6 4 5.8 7.7 7.9 9 16.4 20.5 17.8 24.1.3.8.8 1.9 1 2.5.2.5.8 1.7 1.3 2.5s1.7 3.4 2.6 5.7c2.5 5.9 2.6 22.8.3 27.5-.9 1.8-1.9 4-2.2 4.8-.4.8-1.5 2.8-2.6 4.5-1.1 1.6-2.3 3.7-2.7 4.5-.7 1.6-10.8 15.1-13.9 18.6-1.1 1.2-3.7 4.3-5.9 6.9-2.2 2.6-5.7 6.8-7.8 9.3-6 7.1-14.9 20.8-18.8 29.2-1.2 2.5-2.6 5.4-3.2 6.5-.6 1.1-1.4 3.6-1.8 5.5-.4 1.9-1.2 5.3-1.8 7.5-.6 2.2-1.1 8-1.1 13 0 14.8 4.9 29.8 15.7 48.5 3.7 6.4 14.1 19.9 18.2 23.7 4.8 4.4 11.4 5.9 16.3 3.9 7.2-3 11.8-12.9 8.4-18.1-.9-1.3-1.6-3.1-1.6-3.9 0-.8-.6-1.9-1.3-2.3-1.8-1.1-13.1-16.2-15.7-20.9-1.2-2.2-2.5-4.6-2.9-5.4-1-1.7-3.3-7-5.2-12-2.8-7.3-1.6-25.1 2.2-32 .4-.8 1.8-3.4 3-5.8 3.3-6.7 9.3-14.5 25.4-33.6 7.3-8.5 15.5-19.2 15.5-20.1 0-.3 1.1-2.1 2.4-3.8 1.4-1.8 2.9-4.3 3.5-5.7.6-1.4 1.5-3.2 2-4 1.4-2.4 3.7-8.1 5.5-13.6 2.2-7.2 2.3-29.9 0-36.9-5.1-15.5-10.4-25.7-20-38.3-6-7.9-16.9-19.4-19.1-20.3-1.3-.5-2.3-1.5-2.3-2.4 0-2.1-9.5-2.2-10.4 0zM429.2 331.7l-279.4.3.6 7.3c.3 3.9 1 16.2 1.5 27.2s1.4 21.3 2 22.8c.6 1.6 1.1 6.5 1.1 11s.7 12.7 1.5 18.1c.8 5.5 1.5 12.4 1.5 15.5 0 3.1.7 9.4 1.5 14.1.8 4.7 1.5 10.5 1.5 13s.5 6.1 1 8.1c.6 2 1.5 8.3 2 14 .5 5.7 1.4 12.6 1.9 15.4.5 2.7 1 7.6 1 10.8.1 3.2.6 6.7 1.1 7.8.6 1.1 1.5 5.6 2 10.2.9 8.6 2.4 18.7 4.1 27.2.6 2.7 1.4 8.5 1.9 12.7.4 4.2 1.2 8.2 1.6 9 .5.7 1.1 4 1.5 7.3.3 3.3 1.1 8 1.7 10.5 1.4 5.9 3.1 14.3 4.1 20.5.8 4.8 2 10.3 4.4 19 .5 2.2 1.4 6 1.8 8.5 1.1 6.5 2.9 14.1 4.1 17.5.5 1.6 1.4 4.8 1.8 7 1.2 5.6 3 12.5 4.2 16 .6 1.6 1.4 4.8 1.8 7 .8 4.1 2.3 8.6 4.6 14.3.8 1.8 1.4 4.3 1.4 5.5.1 1.2.7 3.3 1.5 4.7.8 1.4 1.4 3.5 1.5 4.7 0 1.2.6 3.4 1.4 5 .8 1.5 2.1 4.6 2.9 6.8 5.1 14 7.8 20.9 8.8 22.5.5.8 1.2 2.2 1.5 3 .3.8 1.9 4.1 3.5 7.3 1.6 3.1 2.9 6.2 2.9 6.7 0 .6 1.2 2.9 2.7 5.3 1.5 2.3 3.7 6.2 5 8.6 3 5.6 10 15.4 15.3 21.4l4.2 4.7h187.3c103 0 188-.3 188.9-.6 2.1-.8 15.1-18.1 20.2-26.9.7-1.1 2.8-5.4 4.9-9.5 2-4.1 4.1-8.2 4.6-9 .5-.8 1.2-2.2 1.5-3 .3-.8 1-2.2 1.5-3 .5-.8 1.2-2.2 1.5-3 .3-.8 1.2-2.9 1.9-4.5.7-1.7 2.1-5 3-7.5.9-2.5 2.3-6 3.1-7.8.8-1.8 1.4-4.1 1.4-5 0-1 .4-2.2.9-2.7 1.3-1.4 5.1-12.5 5.1-15 0-1.2.5-2.6 1.1-3.2.7-.7 1.5-2.9 1.8-5l.6-3.8 24.5-.5c15.9-.4 25.5-1 27.3-1.8 1.6-.7 4.7-1.2 7-1.2s6.2-.6 8.7-1.4c2.5-.8 7.9-2.4 12-3.7 4.1-1.2 7.9-2.6 8.4-3 .6-.5 1.6-.9 2.3-.9 1.3 0 13.5-5.3 16.3-7.1.8-.5 2.2-1.2 3-1.5.8-.3 2.2-1 3-1.5.8-.5 2.4-1.4 3.5-1.9 1.1-.6 3.4-1.9 5-3 1.7-1.1 3.7-2.3 4.5-2.7 11.2-5.1 49.1-43 54.3-54.3.4-.8 2-3.8 3.7-6.5 6.6-11.1 14.8-29.6 16.9-38 .4-1.7 1.3-4 1.9-5.2.7-1.2 1.2-3.3 1.2-4.6 0-1.4.7-4.1 1.5-6 .8-2 1.5-6.2 1.5-9.2 0-5.9 1.4-10 3.1-9 .5.4.9-7.5.9-20.7 0-20.2-.1-21.4-2-22.6-1.6-1-2-2.3-2-7.1 0-3.3-.5-7.2-1.1-8.8-.7-1.5-1.5-4.6-2-6.8-2-10-9-29.3-13-35.5-.5-.8-1.2-2.2-1.5-3-.3-.8-1-2.2-1.5-3-.5-.8-1.4-2.4-1.9-3.5-.6-1.1-1.9-3.4-3-5-1.1-1.7-2.3-3.7-2.7-4.5-.4-.8-4-6-8.1-11.5-8.8-11.7-25.9-28.8-36.3-36.3-10.6-7.6-21-14.2-22.4-14.2-.7 0-1.8-.7-2.5-1.5s-1.8-1.5-2.4-1.5c-.6 0-4-1.4-7.6-3.1-10.3-5-17.2-7.6-23-8.8-1.9-.4-4.5-1.3-5.7-1.9-1.2-.7-3.5-1.2-5.1-1.2-2.7 0-9.1-2.5-10.2-4-1-1.3-40.9-1.5-316.8-1.3zM750 414.1c6.8 2.5 18.5 8.2 21.7 10.5 1.7 1.3 3.5 2.4 3.8 2.4 1.2 0 8.8 6.3 15.1 12.5 5.4 5.3 12.6 14.3 16.1 20 1.9 3.1 7.8 15.5 9.5 20 5.1 13.2 7.9 34.7 6 45.6-.7 3.6-1.2 8-1.2 9.8 0 3.9-3.6 15.6-7.5 24.6-.7 1.6-1.6 3.7-1.9 4.5-3.6 8.6-14.3 23.3-22.5 30.8-4.5 4.2-14.1 11.6-16.1 12.5-.8.4-2.8 1.6-4.5 2.7-1.6 1.1-3.7 2.3-4.5 2.6-.8.3-3 1.2-4.7 2-14.3 6.3-16.6 6.9-37.1 9.4-12.3 1.5-14.1-.3-10.7-10 .8-2.3 1.5-5.9 1.5-8 0-2.1.7-5.4 1.5-7.3.8-2 1.5-5.4 1.5-7.5 0-2.2.7-5.9 1.5-8.2.8-2.3 1.5-6.1 1.5-8.4 0-2.2.7-6.3 1.5-9s1.5-6.8 1.5-9.2c0-2.3.5-5.5 1.1-7.1.6-1.5 1.5-6.4 1.9-10.8.4-4.4 1.2-10.5 1.8-13.5 1.5-7.3 3.3-20.6 4.2-30.7.4-4.5 1.2-11 1.8-14.5 1.3-7.7 3.2-22.5 4.2-33.3 1.3-14.3 3.2-32 3.6-33.4.5-1.5 3.6-1.2 9.4 1zM.1 842.2c0 .7.9 2.6 2 4.3 1 1.6 2.2 3.7 2.6 4.5.7 1.7 3.9 6.3 6.5 9.4.9 1.2 3.5 4.4 5.7 7.3 5 6.3 22.7 22 32.5 28.7 3.9 2.6 8.7 6.1 10.7 7.7 2 1.6 4.3 2.9 5.1 2.9.8 0 1.9.5 2.5 1.1 1.7 1.7 23.7 13 34.3 17.6 2.5 1.1 6.2 2.7 8.3 3.6 2.1.9 4.4 1.7 5.2 1.7.8 0 2.9.6 4.7 1.4 5.3 2.2 10 3.7 14.8 4.9 6.1 1.5 620.9 2.2 622.4.7.5-.5 2.1-1 3.5-1 3.4 0 17.2-4.5 23.4-7.6 1.6-.8 3.5-1.4 4.2-1.4.7 0 2.6-.6 4.2-1.4 1.5-.7 4.6-2.1 6.8-3.1 2.2-.9 4.7-2.1 5.5-2.6.8-.5 2.2-1.2 3-1.5.8-.3 2.2-1 3-1.5.8-.5 2.1-1.1 2.8-1.4 3.1-1.2 3.9-1.7 7.7-3.8 2.2-1.3 5.6-3.2 7.5-4.2 1.9-1.1 6.1-3.9 9.2-6.2 3.1-2.4 5.9-4.3 6.3-4.3 1.8 0 23.6-18 30.3-25 5.1-5.3 14.8-18.3 17.3-22.9 1.1-2.3 2.5-4.4 3-4.7.5-.3.9-1.4.9-2.5 0-1.9-5.2-1.9-448-1.9-357.8 0-448 .3-447.9 1.2z"/></g></svg>