<svg version="1" xmlns="http://www.w3.org/2000/svg" width="1200" height="1200" viewBox="0 0 900.000000 900.000000"><g fill="#fff"><path d="M485.5 5.4c-1.1.8-2.8 1.6-3.8 1.6-6.5.1-26.7 20.2-26.7 26.5 0 .9-.7 2.7-1.6 4-1.3 2-1.5 4.9-1.2 16.4.2 9.5.7 14.4 1.6 15.3.6.6 1.2 1.9 1.2 2.8 0 3.1 4.1 9.6 9.8 15.3 10.4 10.7 20.2 14.8 36.1 15.4 8.7.4 10.6.2 11.3-1.1.5-.9 2-1.6 3.3-1.6 5 0 15-5.8 21.3-12.4 6.1-6.3 11.2-15.5 11.2-20.2 0-1.3.7-2.7 1.6-3.2 1.3-.7 1.5-2.6 1.1-11.3-.6-15.9-4.7-25.7-15.4-36.1C529.6 11.1 523.1 7 520 7c-.9 0-2.2-.6-2.8-1.3-.9-.8-5.9-1.3-15.5-1.5-11.6-.3-14.6-.1-16.2 1.2zM275.2 174.2l.3 35.3 17.5.5 17.5.5.3 99.2.2 99.2-4.7 6.8c-2.5 3.7-5.6 7.9-6.9 9.3-1.2 1.4-4.5 5.2-7.2 8.5-13.4 15.9-29.7 34.2-40.3 45.2-3.8 3.9-6.9 7.7-6.9 8.4 0 .6-3.4 4.5-7.5 8.6-4.1 4-7.5 7.7-7.5 8.1 0 .4-3.4 4.1-7.5 8.2s-7.5 7.9-7.5 8.5c0 .6-3.4 4.4-7.5 8.4-4.1 4.1-7.5 7.8-7.5 8.3 0 .8-8 10-16.6 18.9-2.4 2.5-4.4 5-4.4 5.5s-2.1 3.1-4.5 5.7c-2.5 2.6-4.5 5.1-4.5 5.5 0 .4-2 2.8-4.5 5.2-2.5 2.4-4.5 4.8-4.5 5.3s-2.6 3.9-5.8 7.6c-3.2 3.6-7.3 8.8-9.2 11.4-5.7 7.8-12.4 16.1-13.7 17-.7.4-1.3 1.7-1.3 2.7 0 1-.6 2.3-1.3 2.7-2.1 1.3-8.7 10.6-10.6 14.8-.5 1.1-2.1 3.1-3.5 4.4-1.4 1.4-2.6 3-2.6 3.7 0 .6-.7 1.4-1.5 1.8-.8.3-1.5 1.3-1.5 2.3 0 1-1.4 3.6-3 5.7-1.7 2.2-3 4.4-3 4.8 0 .5-1.3 2.9-3 5.3-1.6 2.4-3 4.6-3 4.9 0 .4-1.4 2.5-3 4.8-1.7 2.2-3 4.9-3 5.8 0 1-.7 2.3-1.5 3-.8.7-1.5 1.9-1.5 2.7 0 .8-1.3 3.5-3 6-1.6 2.4-3 5-3 5.7 0 .7-.7 2.1-1.5 3.2-.8 1-1.5 2.8-1.5 4 0 1.1-.7 2.9-1.5 4-.8 1-1.5 2.9-1.5 4.1 0 1.2-.4 2.4-.9 2.8-.6.3-1.3 2.7-1.7 5.3-.3 2.6-1.2 5.4-1.9 6.2-.7.8-1.5 4.3-1.9 7.8-.3 3.5-1.1 7.2-1.6 8.3-2.3 4.3.7 47.2 3.5 51.3.8 1.1 1.5 3.3 1.5 4.9 0 1.5 1.4 5.5 3 8.9 1.7 3.3 3 6.6 3 7.3 0 .7.7 1.5 1.5 1.9.8.3 1.5 1.1 1.5 1.9 0 2 3.6 8.6 7.7 14 4.7 6.2 23.4 25.7 24.6 25.7 1.1 0 8.9 6 10 7.7.4.7 1.6 1.3 2.7 1.3 1 0 3.1 1 4.7 2.3 2.6 2.2 11.1 6.7 12.6 6.7.4 0 3.7 1.4 7.4 3.1 12.3 5.5 13.3 5.9 16.4 5.9 1.7 0 3.2.6 3.5 1.5.4.9 1.9 1.5 3.8 1.5 1.8 0 5.5.7 8.2 1.5 2.7.8 6.3 1.5 7.9 1.5 1.7 0 3.6.5 4.2 1.1.5.5 5.1 1.3 10.2 1.6 5 .3 9.4 1 9.7 1.5.7 1.1 464.1 1.1 464.8 0 .3-.5 4.7-1.2 9.7-1.5 5.1-.3 9.7-1.1 10.2-1.6.6-.6 2.5-1.1 4.2-1.1 1.6 0 5.2-.7 7.9-1.5s6.4-1.5 8.2-1.5c1.9 0 3.4-.6 3.8-1.5.3-.9 1.8-1.5 3.5-1.5 3.1 0 4.1-.4 16.4-5.9 3.7-1.7 7-3.1 7.4-3.1 1.5 0 10-4.5 12.6-6.7 1.6-1.3 3.7-2.3 4.7-2.3 1.1 0 2.3-.6 2.7-1.3 1.1-1.7 8.9-7.7 10-7.7 1.2 0 19.9-19.5 24.6-25.7 4.1-5.4 7.7-12 7.7-14 0-.8.7-1.6 1.5-1.9.8-.4 1.5-1.2 1.5-1.9s1.4-4 3-7.3c1.7-3.4 3-7.4 3-8.9 0-1.6.7-3.8 1.5-4.9 2.8-4.1 5.8-47 3.5-51.3-.5-1.1-1.3-4.8-1.6-8.3-.4-3.5-1.2-7-1.9-7.8-.7-.8-1.6-3.6-1.9-6.2-.4-2.6-1.1-5-1.7-5.3-.5-.4-.9-1.6-.9-2.8 0-1.2-.7-3.1-1.5-4.1-.8-1.1-1.5-2.7-1.5-3.6 0-1.7-6.4-14.7-8.1-16.5-.5-.5-.9-1.7-.9-2.6 0-.9-.7-2.2-1.5-2.9-.8-.7-1.5-2-1.5-3 0-.9-1.3-3.6-3-5.8-1.6-2.3-3-4.4-3-4.8 0-.3-1.4-2.5-3-4.9-1.7-2.4-3-4.8-3-5.3 0-.4-1.3-2.6-3-4.8-1.6-2.1-3-4.7-3-5.7s-.7-2-1.5-2.3c-.8-.4-1.5-1.2-1.5-1.8 0-.7-1.2-2.3-2.6-3.7-1.4-1.3-3-3.3-3.5-4.4-1.9-4.2-8.5-13.5-10.6-14.8-.7-.4-1.3-1.7-1.3-2.7 0-1-.6-2.3-1.2-2.7-1.4-.9-8.1-9.2-13.8-17-1.9-2.6-6-7.8-9.2-11.4-3.2-3.7-5.8-7.1-5.8-7.6s-2-2.9-4.5-5.3-4.5-4.8-4.5-5.2c0-.4-2-2.9-4.5-5.5-2.4-2.6-4.5-5.2-4.5-5.7s-2-3-4.4-5.5C706 547.2 698 538 698 537.2c0-.5-3.4-4.2-7.5-8.3-4.1-4-7.5-7.8-7.5-8.4 0-.6-3.4-4.4-7.5-8.5s-7.5-7.8-7.5-8.2c0-.4-3.4-4.1-7.5-8.1-4.1-4.1-7.5-8-7.5-8.7 0-.7-2.8-4.1-6.2-7.6-3.5-3.5-10.1-10.7-14.8-15.9-4.7-5.3-11.3-12.6-14.7-16.4-3.5-3.7-6.3-7.1-6.3-7.6 0-.4-2.1-3.1-4.7-6-8.7-9.4-9.9-10.9-14.6-17.8l-4.7-6.8.2-99.2.3-99.2 17.5-.5 17.5-.5.3-35.3.2-35.2H275l.2 35.2zm242.6 143.7c.1 60.1.6 107.9 1.1 108.5.5.6 1.2 3 1.6 5.3.4 2.4 1.1 4.5 1.5 4.8.5.3 2 2.9 3.5 5.8 3.9 8 9.6 16.4 12.2 18 .7.4 1.3 1.5 1.3 2.4 0 .9 1.5 3.1 3.3 4.9 1.7 1.8 5.2 5.8 7.7 8.9 2.5 3 6.9 8.2 9.8 11.4 2.9 3.3 6.6 7.6 8.1 9.8 1.6 2.1 5 5.8 7.5 8.2 2.5 2.4 4.6 4.7 4.6 5.1 0 .3 3.6 4.3 8 8.7 4.4 4.4 8 8.4 8 8.8 0 .5 3 4.1 6.8 8 10.4 11.1 14.4 16.4 13.8 18-.5 1.3-18.5 1.5-142 1.5H333.1l-2.5 3.2c-3.9 5.1-13.2 18.2-13.9 19.9-.4.8-1.5 2.6-2.5 4-.9 1.5-3 4.7-4.5 7.3-1.6 2.5-3.3 4.6-3.8 4.6s-.9.6-.9 1.3c0 1.5-5.8 9.8-7.7 11-.7.4-1.3 1.7-1.3 2.7 0 1-.6 2.3-1.3 2.7-.8.4-1.7 1.5-2 2.3-.8 1.7-1.4 2.7-7.4 11.8-2.4 3.5-4.3 6.5-4.3 6.8 0 .2-1.3 2.3-3 4.6-1.6 2.2-3 4.5-3 4.9 0 .4-1.9 3.6-4.2 7.1-5.3 7.9-6.4 9.7-7.8 12.8-.6 1.4-2.2 3.9-3.6 5.7-1.3 1.7-2.4 3.9-2.4 4.8 0 .8-.7 1.8-1.5 2.1-.8.4-1.5 1.4-1.5 2.4 0 1.1-.5 2.2-1.1 2.5-.5.4-1.5 1.7-2 2.8-.5 1.2-2.5 4.9-4.4 8.2-1.8 3.3-5.2 9.6-7.5 14s-4.5 8.7-5 9.5c-.5.8-2.5 5-4.6 9.3-2 4.2-4.1 8-4.5 8.3-.5.3-.9 1.3-.9 2.3 0 1-.7 2.4-1.5 3.1-.8.7-1.5 2-1.5 2.9 0 .9-1.4 4.3-3 7.6s-3 6.6-3 7.3c0 .7-1.3 3.8-3 6.9-1.6 3.1-3 6.1-3 6.8 0 .7-.7 2.6-1.5 4.1-.8 1.6-1.5 3.8-1.5 5 0 1.1-.7 2.9-1.5 4-.8 1-1.5 3-1.5 4.4 0 1.4-.7 3.6-1.5 5s-1.4 3.7-1.5 5.3c0 1.5-.5 3.5-1 4.5-.6.9-1.4 6-1.8 11.2l-.7 9.5-3.3.3c-1.9.2-4.4-.4-5.7-1.2-1.4-.9-3.2-1.6-4.1-1.6-.9 0-2.8-.6-4.2-1.4-1.5-.7-4.5-2.2-6.7-3.2-5.5-2.6-17.5-11.5-21.2-15.7-1.7-1.9-4.9-7.2-7.2-11.7-3.5-7-4.1-9.2-4.1-14.5 0-4.3-.5-6.6-1.5-7.5-1.9-1.6-1.9-5.9 0-8.4.9-1.2 1.5-4.1 1.5-7.1 0-2.8.6-5.9 1.4-7 .7-1.1 1.9-3.8 2.6-6 1.1-3.4 2.9-7.2 6.9-14.5.5-.8 1.9-3.8 3.1-6.5 1.3-2.8 3.3-6.4 4.6-8.2 1.3-1.7 2.4-3.7 2.4-4.2 0-.6 1.3-3 3-5.3 1.6-2.2 3-4.5 3-4.9 0-1.2 9.2-14.3 10.7-15.2.7-.4 1.3-1.2 1.3-1.6 0-1.4 10.3-16.1 11.2-16.1.4 0 .8-.6.8-1.3 0-.7 1.3-2.6 3-4.2 1.6-1.6 3-3.3 3-3.8s1.5-2.7 3.3-4.7c1.7-2.1 5-6.2 7.2-9.1 2.2-2.9 5.5-6.7 7.3-8.4 1.7-1.8 3.2-3.8 3.2-4.5 0-.7 1.3-2.7 2.9-4.4 10.8-11.5 15.1-16.4 15.1-17.3 0-.6 2-2.9 4.5-5.2 2.5-2.3 4.5-4.5 4.5-5 0-1 12.4-14.9 22.6-25.2 4-4.1 7.4-8.1 7.4-8.8 0-.7 2.8-4.1 6.3-7.6 8.9-9 20.7-22.1 20.7-23 0-.4 3.6-4.4 8-8.8s8-8.4 8-8.7c0-.4 2.1-2.7 4.6-5.1 2.5-2.4 5.9-6.1 7.5-8.2 1.5-2.2 5.2-6.5 8.1-9.8 2.9-3.2 7.3-8.4 9.8-11.4 2.5-3.1 6-7.1 7.8-8.9 1.7-1.8 3.2-4 3.2-4.9 0-.9.6-2 1.3-2.4 2.6-1.6 8.3-10 12.2-18 1.5-2.9 3-5.5 3.5-5.8.5-.3 1.2-2.6 1.6-5 .3-2.5 1-4.8 1.5-5.1.5-.3.9-46.7.9-107.8 0-59 .3-107.6.7-107.9.3-.4 31.3-.6 68.7-.5l68.1.3.3 107.4zM406 590.5c1.4.8 3.9 1.4 5.5 1.5 1.7 0 5 1.4 7.5 3s5 3 5.5 3c1.2 0 14.9 13.8 15.9 16 .3.8 1.7 3.5 3.1 5.9 1.4 2.4 2.5 5.2 2.5 6.1 0 .9.6 2.2 1.3 2.8.8.9 1.2 5.1 1.2 13.7s-.4 12.8-1.2 13.6c-.7.7-1.3 2.1-1.3 3 0 2.7-4.9 11.7-8.4 15.8-1.8 2-3.6 4.4-3.9 5.3-.4 1-1.3 1.8-2 1.8-.8 0-2 .7-2.7 1.5-2 2.4-9.8 7.4-12.5 8.1-1.4.3-2.8 1-3.1 1.5-.3.5-1.8.9-3.4.9-1.6 0-3.2.4-3.5 1-.3.6-5 1-10.6 1-5.9 0-9.9-.4-9.9-1s-1.3-1-2.9-1c-1.7 0-3.2-.4-3.5-.9-.3-.5-2.1-1.2-4-1.5-1.9-.4-3.9-1.3-4.6-2.1-.7-.8-2-1.5-2.9-1.5-2.3 0-15.7-13.7-17.6-18-.8-1.9-1.9-4.2-2.4-5-4.7-8.3-4.6-8.1-4.6-23.3 0-13 .2-15 1.8-16.1.9-.7 1.7-2 1.7-2.8 0-.8.7-2.3 1.5-3.4.8-1 1.5-2.5 1.5-3.3 0-1.7.9-2.8 9.3-11.2 6.8-6.9 17-12.9 21.9-12.9 1.4 0 3.1-.7 3.8-1.5 1.7-2 17.4-2 21 0zM566.5 657c.3.5 1.9 1 3.5 1 4.8 0 17.7 6.1 26.5 12.5 5 3.7 17.5 17.5 17.5 19.4 0 .7 1.1 2.7 2.4 4.4 3.2 4.3 6.6 14.1 6.6 19.3 0 2.8.5 4.4 1.5 4.8 2.1.8 2.1 16.4 0 19.2-.8 1-1.5 3.9-1.5 6.4 0 2.5-.7 5.4-1.5 6.4-.8 1.1-1.5 2.7-1.5 3.6 0 2.7-5.4 12.3-9.3 16.5-1.1 1.1-2.3 3-2.7 4.2-.5 1.2-3.3 3.9-6.2 6.1-2.9 2.1-6.4 5.1-7.8 6.5-1.4 1.5-3.2 2.7-4.1 2.7-.9 0-2.2.7-2.9 1.5-.7.8-2 1.5-2.9 1.5-.9 0-2.1.4-2.7.9-.5.5-3.6 1.9-6.9 3-7.9 2.8-33.2 3-41.6.5-7.2-2.2-19.3-8.1-22.1-10.8-1.3-1.1-4.3-3.6-6.6-5.4-2.3-1.9-4.2-3.8-4.2-4.3 0-.4-1.6-2.4-3.6-4.4-1.9-2-4.2-5-5-6.8-1.9-4-3.6-7.1-5.1-8.8-.6-.8-1.4-3.4-1.8-5.9-.4-2.5-1.1-5-1.5-5.5-.7-.9-1.1-3.6-2.6-17.4-.4-3.3-.2-5.7.5-6.4.6-.6 1.1-2.8 1.1-4.9 0-5.7 3.6-17.6 6.5-21.3 1.4-1.9 2.5-4.1 2.5-5 0-.8 2-3.5 4.3-5.9 2.4-2.4 4.7-5.1 5-6 .4-.9 1.7-2 3-2.5 1.4-.5 2.7-1.6 3-2.4.6-1.6 11-9.7 12.4-9.7.5 0 2.6-.9 4.8-2 2.2-1.1 4.9-2 6.2-2 1.2 0 2.5-.5 2.8-1 .3-.6 1.7-1 3-1s2.7-.5 3-1c.4-.6 6.2-1 14-1s13.6.4 14 1z"/><path d="M424 280.7c-1.9.2-3.9.9-4.4 1.4-.6.5-1.9.9-3.1.9-1.2 0-3 .7-4.1 1.5-1 .8-2.6 1.5-3.4 1.5-.8.1-2.6 1.4-4 3-1.3 1.7-2.9 3-3.5 3-1.2 0-6.5 5.2-6.5 6.4 0 .4-1.1 2.2-2.4 3.9-6.1 8.4-7.1 12.1-7.1 27.7 0 14.5 0 14.5 3.4 21.2 1.8 3.7 3.9 6.9 4.7 7.2.8.3 1.4 1.3 1.4 2.2 0 2.1 7.3 9.4 9.3 9.4.9 0 2 .6 2.4 1.2 1.1 1.8 6.7 4.8 8.9 4.8.9 0 2.6.8 3.6 1.7 1.6 1.4 4.1 1.7 14.8 1.7 10.7 0 13.2-.3 14.8-1.7 1-.9 2.7-1.7 3.6-1.7 2.3 0 7-2.7 11-6.3 1.7-1.5 3.5-2.7 4.1-2.7 1.1 0 5.5-4.4 5.5-5.4 0-.3 1.4-2.5 3-4.8 1.7-2.2 3-4.9 3-5.9s.4-2 .9-2.4c.5-.3 1.7-3.1 2.6-6.2 1.7-5.6 1.7-18.1 0-24.8-2-8.1-11.6-23.3-16.1-25.4-1.3-.6-2.4-1.5-2.4-2.1 0-.5-.5-1-1-1-.6 0-2.9-1.4-5.2-3-2.5-1.8-5.3-3-7.3-3-1.7 0-3.6-.5-4.2-1.1-1.1-1.1-16.4-2-22.3-1.2z"/></g></svg>