<svg version="1" xmlns="http://www.w3.org/2000/svg" width="1200" height="1200" viewBox="0 0 900.000000 900.000000"><path d="M692.5 150.9c-7.6 3.7-19.3 9.1-27 12.6-3.3 1.5-8.7 4-12 5.5-3.3 1.5-8.5 3.9-11.5 5.3s-8.5 3.9-12.2 5.6c-3.8 1.7-9.8 4.5-13.5 6.2-3.8 1.7-9.2 4.2-12 5.5-2.9 1.3-7.9 3.6-11 5-3.2 1.4-8.7 4-12.3 5.6-11.4 5.3-18.3 8.5-24 11.1-5.3 2.4-13.6 6.2-24.7 11.3-2.9 1.3-7.9 3.6-11 5-3.2 1.4-8.6 3.9-12 5.5-3.5 1.6-9.1 4.2-12.5 5.8-3.5 1.6-9 4.1-12.3 5.6-9.6 4.3-13.5 6.1-22.5 10.3-8.9 4.1-19.3 8.9-27 12.4-2.5 1.1-7.2 3.3-10.5 4.8s-8.7 4-12 5.5c-3.3 1.5-9.1 4.2-13 6-6.3 3-10 4.7-23 10.5-2.2 1-7.1 3.3-11 5-3.8 1.8-9.7 4.5-13 6-3.3 1.5-9.1 4.2-13 6-13.5 6.2-19 8.8-24.5 11.3-5.3 2.4-13.6 6.2-24.8 11.3-5.6 2.6-12.7 5.8-22 10-3.1 1.4-8.8 4.1-12.7 5.9-3.8 1.8-9.5 4.4-12.5 5.8-5.5 2.5-14.8 6.7-24.7 11.3-2.9 1.3-7.9 3.6-11 5-3.2 1.4-6.5 2.9-7.3 3.3-2.2 1.2-2.4 4-.3 4.7 1 .3 4.5 1.8 7.8 3.4 3.3 1.5 9.4 4.4 13.5 6.3 4.1 1.9 12.5 5.8 18.5 8.7 6.1 2.9 14.4 6.8 18.5 8.7 4.1 1.9 11.6 5.4 16.5 7.8 5 2.3 12.4 5.8 16.5 7.8 6.9 3.2 12.8 6 39 18.4 5.2 2.5 12.9 6.1 17 8 4.1 1.9 10.9 5.2 15 7.2l7.5 3.6.3 81.3c.2 68.9.4 81.3 1.6 81.8 1.2.5 11.8-5.5 26.4-14.8 1.5-1 3.6-2.2 4.7-2.8 1.1-.6 3.2-1.8 4.7-2.8 1.4-.9 8.1-5.1 14.8-9.2 6.7-4.1 13.4-8.3 14.8-9.2 1.5-1 3.6-2.2 4.7-2.8 1.1-.6 3.4-1.9 5-3 1.7-1 4-2.5 5.2-3.2 2.8-1.6 35.4-21.7 39.1-24 1.5-1 3.6-2.2 4.7-2.8 1.1-.6 3.2-1.8 4.7-2.8 6.9-4.5 21.6-13.2 22.4-13.2.8 0 4.4 1.6 18.9 8.5 5 2.3 12.4 5.8 16.5 7.8 16.4 7.7 27.9 13.1 36.5 17.2 5 2.4 12.6 6 17 8s12.3 5.7 17.5 8.2c5.2 2.5 12.9 6.1 17 8 4.1 1.9 8.8 4.1 10.3 5 4.4 2.3 5.7 1.2 5.7-4.9 0-2.9.7-11.4 1.5-18.8 2.2-19.8 3.6-35.1 4.5-47.5.9-12.4 2.3-27.7 4.5-47.5.8-7.4 1.5-15.5 1.5-18s.6-10.6 1.5-18c2.2-20 3.6-35.2 4.5-47.5.4-6.1 1.3-16.2 1.9-22.5.7-6.3 1.8-18.5 2.6-27s2-20.5 2.6-26.5c.6-6.1 1.4-16 1.9-22 .4-6.1 1.3-16.2 1.9-22.5.7-6.3 1.8-18.5 2.6-27s1.9-20.5 2.5-26.5c.6-6.1 1.5-16.6 2-23.5.5-6.9 1.3-15.7 1.9-19.5.5-3.9 1.1-11.9 1.3-18 .4-12.9.3-12.9-8.7-8.6zM636 214.6c0 .4-1 1.6-2.3 2.8-5 4.6-23.7 21.5-31.2 28.1-4.3 3.8-8.3 7.5-8.9 8-1 1-8.2 7.5-18.1 16.4-2.2 2-8.7 7.9-14.5 13.1-5.9 5.2-14.1 12.6-18.5 16.5-4.3 3.8-8.3 7.5-8.9 8.1-.6.6-5.6 5-11.1 9.9-8.9 7.9-15.6 13.9-18.9 17-1.9 1.9-13 11.8-21.1 19-4.3 3.8-8.3 7.5-8.9 8.1-.6.6-5.6 5-11.1 9.9s-10.5 9.4-11.1 9.9c-3 2.9-10.4 9.6-19.2 17.4-5.3 4.7-10.2 9.1-10.8 9.6-9.5 9-29.6 26.6-30.4 26.6-.5 0-3-1.1-5.7-2.4-4.8-2.4-17.4-8.4-31.3-14.9-4.1-1.9-12.4-5.8-18.5-8.7-6-2.9-14.4-6.8-18.5-8.7-4.1-2-11.8-5.6-17-8-14.2-6.8-21.3-10-23.4-10.7-1.8-.6-1.8-.8.4-3.1 1.3-1.4 2.8-2.5 3.4-2.5.6 0 3.8-1.3 7.1-2.9 7.6-3.6 17.4-8.2 24.8-11.5 3.1-1.4 8.1-3.7 11-5 11.1-5.1 19.4-8.9 24.7-11.3 3-1.4 8.4-3.9 12-5.5 3.6-1.7 9.4-4.4 13-6 3.6-1.7 9.2-4.3 12.5-5.8 3.3-1.6 8.6-4 11.8-5.4 3.1-1.4 8.1-3.7 11-5 11.1-5.1 19.4-8.9 24.7-11.3 5.7-2.6 12.6-5.8 24-11.1 3.6-1.6 9.2-4.2 12.5-5.7 3.3-1.5 8.3-3.8 11-5 13.8-6.3 19.5-8.9 24.5-11.2 3-1.4 8.4-3.9 12-5.5 3.6-1.7 9.3-4.3 12.8-5.9 3.4-1.6 9-4.2 12.5-5.8 3.4-1.6 8.7-4 11.7-5.4 3-1.4 8.7-3.9 12.5-5.7 3.9-1.8 9.9-4.6 13.5-6.2 3.6-1.6 8.9-4.1 11.8-5.4 2.8-1.3 7.6-3.5 10.5-4.8 2.8-1.3 8.4-3.8 12.2-5.5 3.9-1.8 9.5-4.5 12.5-6 5.3-2.8 9-3.8 9-2.5zm24.6 30.6c-.4 3.5-1.1 11.9-1.6 18.8-.6 6.9-1.4 15.4-2 19-.5 3.6-1 9-1 12s-.7 11.6-1.5 19c-2.2 19.8-3.6 35.1-4.5 47.5-.4 6-1.3 16.2-1.9 22.5-.7 6.3-1.8 18.2-2.6 26.5-.8 8.2-1.9 20.2-2.5 26.5-.7 6.3-1.5 16.7-2 23-.4 6.3-1.2 16-1.8 21.5-2 17.7-3.3 31.7-4.2 44.5-1.1 15.8-2 21-3.5 21.6-.7.3-7-2.3-14.1-5.6-7.1-3.4-16.3-7.8-20.4-9.7-4.1-2-11.5-5.5-16.5-7.8-4.9-2.4-12.4-5.9-16.5-7.8-4.1-1.9-12.4-5.8-18.5-8.7-6-2.9-14.4-6.8-18.5-8.7-4.1-2-11.7-5.5-16.7-7.9-5.1-2.4-13.5-6.4-18.5-8.8-5.1-2.4-12.7-5.9-16.8-7.9-19.8-9.3-28.1-13.2-35.6-16.8-4.5-2.1-8.5-3.9-9-3.9-.5-.1-2-1-3.4-2.1l-2.4-2.1 4.5-4.1c2.5-2.3 8.6-7.8 13.5-12.1 4.9-4.4 12.7-11.4 17.4-15.6 7.8-7 24.7-22.3 34.5-31.1 20.7-18.6 26.1-23.5 26.5-23.9.3-.3 4.3-3.9 9-8 4.7-4 10.9-9.7 13.9-12.4 2.9-2.8 5.9-5.6 6.5-6.1.6-.6 4.9-4.4 9.6-8.5 11.1-9.8 10-8.8 16.1-14.5 3-2.8 9.2-8.4 13.9-12.5 11.1-9.8 10-8.8 16.1-14.5 3-2.8 9.2-8.4 13.9-12.5 8.7-7.6 15.1-13.3 17.9-16.1 6.6-6.4 21.3-18.9 22.2-18.9.9 0 1 1.7.5 6.2zM416.4 483.4c6.1 2.9 14.7 7 19.1 9.1 13.1 6.1 25.9 12.2 35.8 17 5.1 2.5 9.8 4.5 10.4 4.5 1.7 0 3.2 2.5 2.4 3.9-.5.7-1.8 1.8-3 2.4-1.1.7-8.5 5.2-16.3 10-7.9 4.8-15.2 9.3-16.3 10-1.1.7-3.8 2.3-6 3.7-2.2 1.4-4.7 2.9-5.5 3.3-.8.4-2.7 1.5-4.2 2.5-14.8 9.4-28.1 17.1-28.9 16.6-1-.6-1.3-86.7-.2-87.7 1-1 .7-1.1 12.7 4.7z" fill="#fff"/></svg>