<svg version="1" xmlns="http://www.w3.org/2000/svg" width="1200" height="1200" viewBox="0 0 900.000000 900.000000"><g fill="#fff"><path d="M356 188.5c-1.4.8-3.1 1.4-3.9 1.5-1.6 0-8.5 5.2-12.1 9-1.4 1.5-3.7 4.8-5.2 7.4-1.8 3-3.4 4.6-4.7 4.6-1.9 0-5.3 1.3-13.1 4.8-7.8 3.6-20.6 15.3-24.6 22.5-5.5 10-10.1 21.2-11.4 28.2-.4 2.2-1.3 6-2.1 8.5-2.1 7.1-1.8 60.2.4 69.3 2.1 8.6 2.1 9.6 0 10.3-7.4 2.3-26.4 11-40.1 18.3-4.5 2.4-22.2 14.2-24 16-.9.9-4 3.6-6.8 5.8-5.1 4.2-15.4 16-17.9 20.4-3.8 6.7-8.3 17-9.6 21.4-.8 2.7-1.4 9.3-1.4 14.5 0 10.9 1.3 16.5 6.4 26.8 5.1 10.4 5.6 11.2 10.1 16.2 2.2 2.5 4 4.8 4 5.1 0 1.3 19.5 17.4 26.5 22 9.2 6.1 13.9 8.7 26.5 14.9 5.8 2.8 11.8 5.7 13.3 6.5 1.6.8 3.6 1.5 4.5 1.5.9 0 2.6.7 3.6 1.5 1.1.8 2.8 1.5 3.8 1.5 2.8 0 3.1 2.2 1.4 10.2-.8 4-1.8 12.4-2.1 18.7-.6 11.4-2.1 16.1-5 16.1-1.9 0-10.9 9.2-12.9 13.1-1 1.9-2.7 6.8-3.8 10.9-2 7.3-2 7.7-.2 15 2.6 10.9 9.9 21.2 17.9 25.2 6.3 3.2 10.7 4.8 13.1 4.8 3.2 0 6.4 1.7 6.4 3.3 0 1.6 11.5 13.7 16.5 17.4 3.9 2.8 6.5 4.2 15 7.8 5 2.1 25.9 3.1 36.5 1.7 10.5-1.5 25.8-6.3 33-10.4.8-.4 2.2-1.1 3-1.4.8-.3 2.2-1 3-1.5.8-.5 2.2-1.2 3-1.5.8-.3 2.2-1 3-1.5.8-.5 2.4-1.4 3.5-1.9 1.1-.6 3.4-1.9 5-3 1.7-1.1 3.7-2.3 4.5-2.7.8-.3 3.1-1.9 5.1-3.5 2-1.5 4.1-2.8 4.5-2.8.5 0 2.6-1.6 4.7-3.5s4.1-3.5 4.5-3.5c.4 0 2.7-1.8 5.2-4s5.2-4 6-4c.8 0 3.1 1.4 5 3.1 1.9 1.8 5.1 4.2 7 5.4 1.9 1.2 4.4 3.2 5.4 4.4 1.1 1.1 2.3 2.1 2.9 2.1.5 0 2.6 1.2 4.6 2.7 4 3.1 6.7 4.8 9.6 6.3 1.1.6 3.4 1.9 5 3 1.7 1.1 3.7 2.2 4.5 2.6.8.3 2.2 1 3 1.5.8.5 2.2 1.2 3 1.5.8.3 2.2 1 3 1.5.8.5 2.2 1.2 3 1.5.8.3 2.9 1.1 4.5 1.8 15.7 6.7 28.9 9 47.5 8.3 12.4-.5 13.8-.9 24-5.5 7.8-3.6 20.6-15.3 24.6-22.5 5.9-10.6 10.1-21.3 11.5-29.1.4-2.6 1.4-6.4 2.1-8.5.9-2.6 1.3-11.6 1.2-32.1 0-23.8-.3-29.8-1.8-36.3-1.9-8.5-1.7-10.7 1.2-10.7 1 0 2.7-.7 3.8-1.5 1-.8 2.7-1.5 3.6-1.5.9 0 2.9-.6 4.5-1.4 14.7-7.5 16.2-8 18-6.5 3.7 2.9 7 4.3 13.8 5.6 16.6 3.1 33-5 40.3-19.9 3.7-7.6 4.6-14.9 3.2-24.6-.8-5.7-.7-7.9.2-9.7 4.2-7.6 8.7-17.7 9.9-22 1.8-6.4 1.8-22.6 0-29-1.3-4.4-5.8-14.7-9.6-21.4-2.5-4.4-12.8-16.2-17.9-20.4-2.8-2.2-5.9-4.9-6.8-5.8-1.8-1.8-19.5-13.6-24-16-13.7-7.3-32.7-16-40-18.3-2.2-.7-2.2-1.7-.1-10.3 2.1-8.9 2.6-62.6.5-68.4-.7-2.1-1.7-5.9-2.1-8.5-1.2-6.8-3.3-12.5-8.1-22.4-3.6-7.4-4.5-8.7-9.1-14.1-19.2-22.4-47.8-27.4-83.9-14.8-5.4 1.9-16.3 6.7-20 8.9-.8.5-2.2 1.1-3 1.4-.8.4-2.8 1.5-4.5 2.6-1.6 1.1-3.9 2.4-5 3-2.9 1.5-5.6 3.2-9.6 6.2-2 1.6-4.1 2.8-4.6 2.8s-2.2 1.3-3.9 2.8c-1.6 1.6-4.5 3.8-6.4 4.9-2 1.2-4.6 3.3-5.9 4.7-3.3 3.5-4.8 3.3-10-1.4-2.5-2.2-4.8-4-5.2-4-.4 0-2.5-1.6-4.6-3.5-2.1-1.9-4.2-3.5-4.7-3.5-.4 0-2.5-1.3-4.5-2.8-2-1.6-4.3-3.2-5.1-3.5-.8-.4-2.8-1.6-4.5-2.7-1.6-1.1-4-2.4-5.2-2.9-2.3-1.1-2.5-1.5-4.7-12.1-2.7-12.9-11.1-23.3-22.5-27.9-5.2-2.1-22.9-2.5-26.1-.6zm204 42.9c9.2 1.7 14.5 4.4 21.4 11.3 9.7 9.6 15.8 25.2 17.7 45.3 1.2 12.5.3 45.8-1.5 52.7-1.4 5.6-3.1 6.3-10.4 3.9-2.6-.8-7.4-2.1-10.7-2.9-3.3-.8-8.2-2.1-11-2.7-2.7-.7-7.2-1.6-10-2-2.7-.4-7.5-1.3-10.5-1.9-3-.6-10.4-1.9-16.4-2.8l-10.9-1.8-7.2-9.5c-4-5.2-8.6-10.9-10.2-12.5-1.5-1.7-4.6-5.2-6.8-7.9-2.1-2.7-9-10.1-15.2-16.5-6.2-6.4-11.3-12.3-11.3-13.1 0-1.3 16.9-15 18.6-15 .3 0 2.3-1.2 4.3-2.8 5-3.8 6.3-4.5 17.6-10 15-7.4 22.2-10 32.5-11.7 10.1-1.7 11.4-1.7 20-.1zm-228 3.9c0 4.2 7.3 14.2 13.7 19 14.6 10.7 31.9 10 46.8-1.8l6.7-5.4 6.5 4.5c3.5 2.4 6.6 4.4 6.9 4.4 1.5 0 18.4 13.7 18.4 15 0 .8-5.1 6.7-11.3 13-6.1 6.3-13 13.7-15.2 16.5-2.2 2.7-5.3 6.3-6.8 8-1.6 1.6-6.2 7.3-10.2 12.5l-7.2 9.5-10.9 1.8c-6 .9-13.4 2.2-16.4 2.8-3 .6-7.7 1.5-10.5 1.9-2.7.4-7.2 1.3-10 2-2.7.6-7.7 1.9-11 2.7-3.3.8-8.1 2.1-10.7 2.9-7.3 2.4-9.1 1.7-10.5-3.8-2.9-12-2.5-55.5.8-67.8 4.7-18.1 14.3-32.6 24.8-37.7 4.6-2.2 6.1-2.2 6.1 0zm127.3 59.9c4.9 5.1 11.7 12.4 15 16.3 3.3 3.8 7.7 8.8 9.8 11 2.1 2.1 3.6 4.2 3.4 4.5-.6.9-76.5.6-76.6-.3 0-.8 5.9-7.7 18.5-21.6 9-9.9 18.5-19.1 19.7-19.1.6 0 5.2 4.2 10.2 9.2zm36.2 54.8c11.1 1.6 12.4 2 13.7 4.5.7 1.3 4.9 7.7 9.3 14.2 4.5 6.5 8.4 12.5 8.8 13.3.4.8 1.6 2.8 2.7 4.5 1.1 1.6 2.4 3.9 3 5 .6 1.1 1.9 3.3 3 5 1.1 1.6 2.4 3.9 3 5 .5 1.1 2.5 4.7 4.4 8 1.9 3.3 6.4 12.1 10.1 19.5 3.7 7.4 7.3 14.7 8.1 16.2 1.8 3.3 1.8 8.3 0 11.6-.8 1.5-3.8 7.4-6.6 13.2-2.8 5.8-5.5 11.2-6 12-.5.8-1.1 2.2-1.4 3-.3.8-2.2 4.2-4.1 7.5-1.9 3.3-4 6.9-4.5 8-.6 1.1-1.9 3.3-3 5-1.1 1.6-2.4 3.9-3 5-.6 1.1-1.9 3.3-3 5-1.1 1.6-2.3 3.6-2.6 4.4-.4.7-4.1 6.3-8.2 12.5-4.1 6.1-8.4 12.5-9.6 14.3-2.3 3.4-3.4 3.8-14.6 5.3-9.7 1.2-82.3 1.2-92 0-11.2-1.5-12.3-1.9-14.6-5.3-1.2-1.8-5.5-8.2-9.6-14.3-4.1-6.2-7.8-11.8-8.2-12.5-.3-.8-1.5-2.8-2.6-4.4-1.1-1.7-2.4-3.9-3-5-.6-1.1-1.9-3.4-3-5-1.1-1.7-2.4-3.9-3-5-.5-1.1-2.5-4.7-4.4-8-1.9-3.3-6.4-12.1-10.1-19.5-3.7-7.4-7.3-14.7-8.1-16.2-1.8-3.3-1.8-8.3 0-11.6.8-1.5 4.4-8.8 8.1-16.2 3.7-7.4 8.2-16.2 10.1-19.5 1.9-3.3 3.9-6.9 4.4-8 .6-1.1 1.9-3.4 3-5 1.1-1.7 2.4-3.9 3-5 .6-1.1 1.9-3.4 3-5 1.1-1.7 2.3-3.7 2.7-4.5.7-1.5 12.4-19 17.3-26 1.4-1.9 2.6-3.7 2.7-3.9.1-.2 3.9-.9 8.5-1.6 10.2-1.6 85.8-2 96.3-.5zM361 355.9c0 1.2-1.9 4.5-6.5 11.6-4.5 6.8-6 9.2-7.5 12-.6 1.1-1.9 3.3-3 5-1 1.6-3.1 5.2-4.5 8-1.4 2.7-4.1 7.7-6 11-3.8 6.8-7 13.2-7.8 15.7-1 2.9-4.6 2.2-5.3-1-.5-2.5-2.1-7.1-4.6-13.2-.6-1.4-1.4-4.1-1.8-6-.5-1.9-1.3-4.9-1.8-6.5-1.9-5.4-6.2-21.6-6.2-23.2 0-1 9.9-4.5 16-5.7 3.1-.6 9.8-2.3 16.6-4.2 2.8-.8 6.4-1.4 8-1.4 1.6 0 4.9-.7 7.4-1.4 5.4-1.7 7-1.9 7-.7zm182.6.6c2.7.8 6.2 1.5 7.8 1.5 1.6 0 5.2.6 8 1.4 6.8 1.9 13.5 3.6 16.6 4.2 6.1 1.2 16 4.7 16 5.7 0 1.6-4.3 17.7-6.2 23.2-.5 1.6-1.4 4.8-1.9 7-.6 2.2-1.4 4.4-2 4.9-.5.6-.9 1.8-.9 2.8 0 .9-.6 3.2-1.4 5-.8 1.8-1.7 4.5-2.1 6-.6 3.2-4.2 3.9-5.2 1-.8-2.5-4-8.9-7.8-15.7-1.9-3.3-4.6-8.3-6-11-3.2-6-4.2-7.7-7.8-13.2-1.5-2.4-2.7-4.5-2.7-4.7 0-.3-1.9-3.3-4.2-6.8-6.5-9.6-8-12.8-6-12.8.5 0 3.1.7 5.8 1.5zm-258 20.7c.4.7 1.1 3 1.5 5.3.4 2.2 1.2 5.3 1.7 7 .6 1.6 1.8 5.7 2.8 9 .9 3.3 2.2 7.6 2.9 9.5.7 1.9 1.8 5.1 2.4 7 .7 1.9 1.7 4.8 2.1 6.5 1.5 5.3 4.1 12 5.1 12.9.5.6.9 1.8.9 2.7 0 1 .8 3.2 1.7 5.1 3.1 6.2 3.3 6.8 3.3 8.8 0 2-.2 2.6-3.3 8.8-.9 1.9-1.7 4.1-1.7 5.1 0 .9-.4 2.1-.9 2.6-1 1-3.6 7.7-5.1 13-1.1 4-2.9 9.2-4.6 13.3-.8 1.8-1.4 4-1.4 5 0 .9-.7 3-1.5 4.6-.8 1.5-1.5 4-1.5 5.5-.1 1.4-.7 3.7-1.5 5.1-.8 1.4-1.4 3.8-1.5 5.3 0 6-3.4 8.4-7.6 5.2-1-.8-2.6-1.5-3.4-1.5-1.2 0-9.6-3.7-16.1-7-4.7-2.4-11.8-6.4-14.4-8.1-1.6-1-3.7-2.2-4.5-2.6-2-.9-12.3-8.7-18.8-14.3-5.6-4.8-14.6-16.2-17.3-22-2.6-5.6-4.9-13.9-4.9-18 0-4.2 2.3-12.3 5.1-18.5 3.7-7.9 13.2-18.8 23.4-26.8 9.2-7.2 11.4-8.7 17-11.7 1.1-.5 3.4-1.9 5-2.9 5.2-3.4 23.6-12.1 25.5-12.1.8 0 2.4-.7 3.4-1.5 2.4-1.8 5.2-1.9 6.2-.3zm333 .3c1 .8 2.6 1.5 3.4 1.5 1.9 0 20.3 8.7 25.5 12.1 1.7 1 3.9 2.3 5 2.9 10.4 5.2 26.9 19.2 33.8 28.5 7.5 10.2 11.7 20.3 11.7 28.5 0 4.1-2.3 12.7-4.8 17.7-1.8 3.6-3.9 4.1-7.5 1.9-1.2-.7-5.3-1.8-9.2-2.5-11.4-1.9-21.5 1-30.4 8.6-6.1 5.2-10.4 12.5-12.6 21.3-1.6 6.8-1.7 8-.3 12.5.8 2.8 1.3 5.6 1 6.3-.4 1.3-10 6.2-12.3 6.2-.8 0-2.3.7-3.3 1.5-2.4 1.8-5.2 1.9-6.2.3-.4-.7-1.1-3-1.5-5.3-.4-2.2-1.2-5.4-1.7-7-.6-1.7-1.8-5.7-2.8-9-.9-3.3-2.2-7.6-2.9-9.5-.7-1.9-1.8-5.1-2.4-7-.7-1.9-1.7-4.9-2.1-6.5-1.5-5.3-4.1-12-5.1-13-.5-.5-.9-1.7-.9-2.6 0-1-.8-3.2-1.7-5.1-3.1-6.2-3.3-6.8-3.3-8.8 0-2 .2-2.6 3.3-8.8.9-1.9 1.7-4.1 1.7-5 0-.9.7-2.6 1.5-3.6.8-1.1 1.5-2.9 1.5-4.1 0-1.1.6-2.9 1.4-4 .7-1.1 1.6-3.1 1.9-4.5.3-1.4 1.1-4.1 1.7-6 3.1-8.7 3.8-10.9 5.4-16.5 1-3.3 2.4-8 3.2-10.5.8-2.5 1.4-5.3 1.4-6.3 0-5 3.7-7.1 7.6-4.2zM325.7 482.7c.8 2.6 4 9 7.8 15.8 1.9 3.3 4.6 8.2 6 11 1.4 2.7 3.4 6.2 4.3 7.7 12.7 19.9 17.7 28.6 17 29.4-.4.3-3.2-.1-6.5-.9-6.9-1.8-14.9-3.5-21.9-4.6-2.8-.5-6.1-1.4-7.2-2-1.1-.6-3.3-1.1-4.9-1.1-1.5-.1-3.9-.7-5.3-1.5s-3.4-1.5-4.5-1.5c-4.2-.1-4.9-1.4-3.6-6.7 1.7-6.9 4.1-15.3 5.3-18.8.5-1.7 1.4-4.6 1.8-6.5.9-4 2.6-9.1 4.5-13.5.8-1.7 1.6-4.2 1.9-5.8.7-3.1 4.3-3.8 5.3-1zm251.9 1c.3 1.6 1.1 4.1 1.9 5.8 1.9 4.4 3.6 9.5 4.5 13.5.4 1.9 1.3 4.8 1.8 6.5 1.2 3.5 3.6 11.9 5.3 18.8 1.3 5.3.6 6.6-3.6 6.7-1.1 0-3.1.7-4.5 1.5s-3.8 1.4-5.3 1.5c-1.6 0-3.8.5-4.9 1.1-1.1.6-4.4 1.5-7.2 2-7 1.1-15 2.8-21.9 4.6-3.3.8-6.1 1.2-6.5.9-.7-.8 4.3-9.5 17-29.4.9-1.5 2.9-5 4.3-7.7 1.4-2.8 4.1-7.7 6-11 3.8-6.8 7-13.2 7.8-15.8 1-2.8 4.6-2.1 5.3 1zM311 557.4c5.7 1.9 14.3 4 24.5 6 4.4.9 10.9 2.3 14.5 3.1 3.6.9 7.6 1.5 9 1.5 1.4 0 6.7.8 11.9 1.7l9.4 1.8 7.3 9.5c4 5.2 8.4 10.8 9.9 12.3 1.4 1.5 4.8 5.4 7.5 8.7 2.7 3.2 9.7 10.7 15.5 16.7 5.8 5.9 10.5 11.5 10.5 12.3 0 1.3-16.9 15-18.4 15-.3 0-3.3 1.9-6.8 4.3-6.3 4.2-21.8 12.2-29.3 14.9-9.3 3.5-11.4 4.1-20 5.4-16.7 2.8-29.8-1.1-40.7-11.9-2.5-2.4-2.3-3.1 2.5-7.6 2.3-2.2 5.8-7 7.7-10.7 3.3-6.4 3.4-7.2 3.4-17-.1-7.8-.5-10.9-1.7-12.8-1-1.4-1.7-3.2-1.7-3.9 0-1.8-11.8-14.7-13.5-14.7-.7 0-1.8-.6-2.4-1.4-.7-.8-2.7-1.7-4.6-2-1.8-.4-4.2-1.4-5.3-2.4-1.8-1.6-1.9-2.5-1.2-13.2 1.2-17.6 2.1-18.7 12-15.6zm286.7 3.8c1.7 6.9 2.6 40.5 1.4 52.8-3.9 41.3-25 61.9-57.6 56.6-8.6-1.3-10.7-1.9-20-5.4-7.5-2.7-23-10.7-29.3-14.9-3.5-2.4-6.5-4.3-6.8-4.3-1.5 0-18.4-13.7-18.4-15 0-.8 4.8-6.5 10.6-12.5 5.9-6 12.8-13.5 15.5-16.7 2.6-3.1 6-7 7.4-8.5 1.5-1.5 5.9-7.1 9.9-12.3l7.3-9.5 9.4-1.8c5.2-.9 10.8-1.7 12.6-1.7 1.7 0 4.4-.5 6-1.1 1.5-.6 5.5-1.4 8.8-1.9 8.8-1.3 24.9-5 32-7.5 2.2-.8 5.4-1.3 7-1.2 2.7.2 3.1.7 4.2 4.9zm-110.6 14.3c-.3 1.1-9.4 11.4-20.6 23.5-7.6 8.3-16.6 16.9-17.6 17-1 0-18.5-17.7-25.2-25.5-3.3-3.9-7.7-8.8-9.8-11-2.1-2.1-3.6-4.2-3.4-4.5.7-1.1 77-.6 76.6.5z"/><path d="M437.5 382c-6 .8-12.8 2.6-17.5 4.7-1.4.6-3.2 1.4-4 1.7-.8.4-2.8 1.5-4.5 2.6-1.6 1.1-4 2.4-5.2 2.9-3.2 1.4-16.6 15-19.9 20.2-1.6 2.4-3.7 6.2-4.7 8.4s-2.5 5.2-3.3 6.7c-.8 1.4-1.4 3.5-1.4 4.6 0 1.1-.7 3.6-1.6 5.7-1.2 3-1.5 6.6-1.1 17.9.5 15.6 2.2 23.4 6.8 31.6.5.8 1.4 2.6 2 4 1.4 3.4 8.4 12.7 12.8 17 6 5.9 12.4 10.4 20.1 14.1 2.5 1.1 5.8 2.7 7.3 3.5 1.6.8 3.8 1.4 5 1.4 1.2 0 4.4.7 7.1 1.5 13.6 4.1 37.4-.2 53.1-9.8 10.2-6.2 23-19.6 26.4-27.7.6-1.4 1.5-3.2 2-4 4.6-8.2 6.3-16 6.8-31.6.4-11.3.1-14.9-1.1-17.9-.9-2.1-1.6-4.6-1.6-5.7 0-1.1-.6-3.2-1.4-4.6-.8-1.5-2.3-4.5-3.3-6.7s-3.2-6-4.7-8.5c-3.2-4.9-16.9-18.7-20.1-20.1-1.1-.5-3.3-1.8-5-2.9-1.6-1.1-3.7-2.2-4.5-2.6-.8-.3-2.8-1.1-4.5-1.8-10.5-4.5-27-6.4-40-4.6z"/></g></svg>