<svg version="1" xmlns="http://www.w3.org/2000/svg" width="1200" height="1200" viewBox="0 0 900.000000 900.000000"><path d="M338.5 80.6c-3.3.7-7.3 1.3-8.9 1.4-1.6 0-5.2.6-8 1.4-2.8.8-8 2.2-11.6 3.1-3.6 1-8.1 2.3-10 3-18.9 6.9-27.1 10.6-41.3 18.4-17.7 9.7-33.8 22.1-50.8 39-25.6 25.7-42.2 51.9-54.4 86.1-.7 1.9-1.8 5.1-2.5 7-.6 1.9-1.4 4.6-1.7 6-.3 1.4-1.1 4.5-1.8 7-8.7 30.2-8.7 82.8 0 113 .7 2.5 1.5 5.6 1.8 7 .6 2.8 1.3 5.1 7.4 21.5 15.9 43 52.1 86.3 93.3 111.7 15.6 9.6 36.9 19.6 48.5 22.8 1.7.5 4.4 1.3 6 1.8 25.8 8.9 66.8 12.6 94.3 8.7 31.6-4.6 49.5-10 76.2-23 8.1-3.9 9.3-4.6 15.8-8.8 2.4-1.5 4.6-2.7 4.9-2.7.3 0 2.3-1.4 4.4-3.1 2.1-1.7 4.6-2.9 5.4-2.7.8.2 35.4 34.1 76.7 75.4 61.3 61.2 76.3 75.7 80.8 78 5.1 2.6 6.4 2.8 17.5 2.8 9.6 0 12.7-.4 15.4-1.8 22.1-11.6 29-33.3 17.7-55.3-1-1.8-35.6-37.2-77.1-78.7-41.5-41.5-75.5-75.7-75.5-76 0-.4 2.4-4.3 5.3-8.9 7.2-11.5 7-11.1 12.5-22.2 11.3-23 16.6-39.1 21.8-66.5 2.6-13.2 2.6-61 .1-71.3-1-3.8-1.7-8-1.7-9.4 0-1.5-.7-5.1-1.6-8.2-.8-3.1-2.2-8.1-3.1-11.1-.8-3-2.1-7-2.9-8.8-.8-1.8-1.4-3.9-1.4-4.7 0-.8-.7-3.1-1.6-5.2-.9-2.1-2.3-5.2-3-6.8-2.5-5.8-11.6-24-13.5-27-1-1.7-2.2-3.7-2.6-4.5-.4-.8-2.7-4.4-5.1-8-18.6-27.3-44.1-51.8-70.7-68.2-17.6-10.8-31.6-17.3-49.5-22.9-3.6-1.2-8.3-2.7-10.5-3.5-2.3-.8-4.9-1.4-5.9-1.4-1.1 0-4.2-.6-7-1.4-12.5-3.6-23.9-4.6-50.2-4.5-17.8.1-27.8.5-31.9 1.5zm49.5 75.8c32.9 3.6 59.3 15.1 85 36.8 17.2 14.6 35.5 40.5 42.6 60.3 5.1 14.1 7.3 23 9 35.4 3.7 28.2-.2 56.5-11.3 82.1-2.1 4.8-6.5 13.2-9.8 18.8-11.5 19.2-32.2 39.9-52 51.8-9.3 5.7-26.3 13.4-33 15-1.1.3-4.2 1.1-7 1.9-14.1 3.9-20.4 4.6-39.5 4.6-13.7 0-21.5-.4-27.4-1.6-18.5-3.7-33.1-9.1-51.1-18.9-2.5-1.4-14.8-9.8-15.5-10.5-.3-.4-2.1-1.9-4-3.4-15.9-12.8-32.1-33.5-40.9-52.2-1.8-3.9-3.7-7.8-4.2-8.7-2.3-4.5-7.1-21.7-9.4-33.6-3.8-20.6-.8-56.9 6.1-73 .8-1.8 1.4-3.9 1.4-4.7 0-.7.6-2.6 1.4-4.2.8-1.5 2.9-6 4.7-9.8 12.2-25.7 35.3-51 59.4-65.2 3.3-1.9 19.7-10 24-11.8 8.9-3.7 23.6-7.3 37.5-9 14-1.7 19.2-1.7 34-.1z"/></svg>