<svg version="1" xmlns="http://www.w3.org/2000/svg" width="1200" height="1200" viewBox="0 0 900.000000 900.000000"><g fill="#fff"><path d="M91.6 38.5c-1.5.8-3.4 1.5-4.2 1.5-.8 0-4.2 2.8-7.7 6.2C69.6 56.3 69 58.7 69 87c0 13.6.4 23.8 1.1 25.9 3.6 11.6 11.8 20.6 21.6 23.7 5.6 1.8 17.8 1.9 357.3 1.9s351.7-.1 357.3-1.9c9.8-3.1 18-12.1 21.6-23.7.7-2.1 1.1-12.3 1.1-25.9 0-28.3-.6-30.7-10.7-40.8-3.5-3.4-6.9-6.2-7.7-6.2-.8 0-2.7-.7-4.2-1.5-2.6-1.3-44.9-1.5-357.4-1.5s-354.8.2-357.4 1.5zM88.5 178.1c-7 3.6-10.7 6.8-14.3 12.4-4 6.2-4.4 9.5-5.2 35.5-.6 19.9-1 25.1-2.3 27.5-.9 1.6-1.7 3.7-1.7 4.5 0 .9-.4 2-.9 2.5-.4.6-1.8 4.4-3.1 8.5s-2.9 8.9-3.6 10.7c-.8 1.7-1.4 3.6-1.4 4.2 0 .6-.4 1.9-1 2.9-1.1 1.8-3.6 8.9-5 13.7-1.2 4.3-4.5 13.5-7.5 21-.6 1.6-2 5.7-3 9s-2.2 6.9-2.6 8c-1.6 3.9-4.1 11-4.6 13.5-.3 1.4-1 3-1.5 3.7-.6.7-1.4 2.7-1.8 4.5-.9 3.7-2.7 8.8-4.7 13.5-.7 1.7-1.3 3.7-1.3 4.5 0 .8-.4 1.8-.9 2.4-.6.5-1.4 2.7-2 4.9-.9 3.9-2.6 9-4.2 13-4.7 11.3-5.8 16.9-4.9 23.4 2.3 16.7 15.8 28.1 33 28.1 7.1 0 13.3-2.2 18.3-6.5 3.7-3.2 5.2-4 5.9-3.3.2.2.5 97.7.8 216.8.4 154.5.9 217.6 1.7 220.2 2.5 8.4 11.7 17.5 21.3 21.1 4.2 1.6 21.4 1.7 232.3 1.7H552V728.7c0-164.8.1-171.5 1.8-173 1.7-1.6 9.1-1.7 85.8-1.7 64 0 84.3.3 85.2 1.2.9.9 1.2 40.7 1.2 173V900h37.7c41.5 0 42.1-.1 51.1-6.4 5.2-3.6 11-11.2 12.5-16.4.8-2.6 1.3-65.7 1.7-220.2.3-119.1.6-216.6.8-216.8.8-.8 3.3.1 5.3 2.1 1.3 1.3 4.7 3.4 7.4 4.8 7.1 3.4 21.6 3.5 29 .1 9.9-4.6 14.8-11.6 15.9-22.7.8-7.9.2-10.9-4.9-25-2-5.5-4.1-11.8-4.6-14-.6-2.2-1.4-4.4-2-5-.5-.5-.9-1.5-.9-2.3 0-.8-.6-2.8-1.3-4.5-2-4.7-3.8-9.8-4.7-13.5-.4-1.8-1.2-3.8-1.8-4.5-.5-.7-1.2-2.3-1.5-3.7-.9-3.9-9.6-29.3-10.7-31.2-.5-1-1-2.3-1-2.9 0-.6-.6-2.5-1.3-4.2-1.8-4.3-3.7-9.5-4.7-13.2-1-3.7-6.6-19.2-7.9-22-.5-1.1-1.2-3.1-1.4-4.5-.7-3.2-3.4-11-4.7-13.2-.6-1-1-2.3-1-3 0-.7-.8-2.7-1.7-4.3-1.3-2.4-1.7-7.6-2.3-27.5-.8-26-1.2-29.3-5.2-35.5-3.6-5.6-7.3-8.8-14.3-12.4l-5.9-3.1H94.4l-5.9 3.1zm114 100.8c.3 1 .1 2.9-.5 4.2-.5 1.3-1.4 4.9-2 7.9-.5 3-1.6 8.2-2.4 11.5-.8 3.3-2 8.7-2.6 12-.6 3.3-1.6 7.5-2.2 9.3-.5 1.9-1.4 5.7-1.8 8.5-1.1 6.4-2.7 13.7-4.6 20.1-.8 2.6-1.4 6.2-1.4 7.8 0 1.6-.5 3.8-1 4.8-.6 1-1.4 4.5-1.9 7.7s-1.4 7.6-1.9 9.8c-.6 2.2-1.8 7.6-2.7 12-1 4.4-2.2 9.3-2.8 11-.5 1.6-1.3 7.5-1.7 13-.5 5.5-1.4 12-2.2 14.5-2.2 7.3-7.3 15.3-13.6 21.1-9.1 8.4-12.5 10.2-25.1 13-8 1.9-8.8 1.9-16.5.3-23.9-4.8-41.5-24.6-41.6-46.9 0-6.5 1.3-12.5 4.6-20.3.8-1.8 1.4-4.6 1.4-6.2 0-1.6.4-3.1.9-3.5.5-.3 1.2-2 1.6-3.8.4-1.7 1.2-5 2-7.2 1.6-5.1 3.8-12.3 6-20 3.7-13.2 4.4-15.4 7.5-25.5 1.8-5.8 3.9-13 4.8-16 .8-3 2.1-7.3 2.7-9.5.7-2.2 2.1-6.7 3-10 1-3.3 2.4-7.7 3.1-9.8.8-2 1.4-4.7 1.4-5.9 0-1.2.7-3 1.7-4 1.5-1.7 4.2-1.8 44.4-1.8 41 0 42.8.1 43.4 1.9zm144.5 9.5c0 6.2-.4 12.6-1 14.2-.5 1.6-1.4 10.1-2 18.9-1.1 17.4-2.3 30.1-4.5 49.6-.8 6.9-1.5 15.7-1.5 19.5 0 3.8-.4 8.4-1 10.2-.5 1.9-1.2 9.1-1.5 16-.4 7-1.1 14-1.7 15.7-3.4 9.3-6.6 14.4-12.8 20.5-7.8 7.7-16.2 12.2-27.3 14.5-7.2 1.6-8.2 1.6-15.5 0-22-4.9-36.5-19.5-40.8-41.1-1.6-8.5-1.7-9.6-.2-16.5.9-4.1 2.3-11.9 3.3-17.4.9-5.5 2.1-12.3 2.7-15 .6-2.8 1.5-7.9 1.9-11.5 1.7-13.2 5.1-33.3 7.5-43.7.8-3.4 1.4-8 1.4-10.2 0-2.2.4-5 1-6.3.5-1.3 1.4-5.9 1.9-10.3 1.1-8.9 2.4-15.6 3.5-17.3.5-.9 11.9-1.2 43.7-1.2H347v11.4zm145.1-9.7c1.1 1.2 1.6 7.4 2.1 24.6.3 12.7 1.1 31 1.7 40.6.7 9.7 1.3 33.6 1.4 53.1l.2 35.5-3.5 6.5c-1.9 3.6-4.8 8.3-6.4 10.5-5.9 8.1-18 15.2-30.8 18-7.3 1.5-8.3 1.5-15.5-.1-17.3-3.8-29.6-13.1-36.9-27.9l-3.9-8 .2-35c.2-19.3.8-42.9 1.4-52.6.6-9.6 1.4-27.9 1.7-40.6.5-17.2 1-23.4 2.1-24.6 1.2-1.5 5.5-1.7 43.1-1.7s41.9.2 43.1 1.7zm146.8 3.8c.7 2.7 1.7 8.6 2.2 13 .5 4.4 1.4 9 1.9 10.3.6 1.3 1 3.7 1 5.5 0 2.9.8 7.5 4.5 27.2 2.1 10.4 3.6 20.2 4.4 27.5.4 3.6 1.3 8.7 1.9 11.5 2 9.2 6.1 32.2 6.9 39.2.7 5.6-2.9 19.1-6.8 26-7.1 12.5-19.8 21.4-35.1 24.8-7.3 1.6-8.3 1.6-15.5 0-10.9-2.3-19.5-6.8-26.7-14.1-6.8-6.7-7.4-7.5-9.7-12.4-4-8.6-4.8-11.9-5.3-24-.3-6.9-1.1-14.1-1.6-16-.6-1.9-1-6.6-1-10.4 0-3.8-.7-12.6-1.5-19.5-2.4-20.7-3.5-32.7-4.6-49.6-.5-8.8-1.4-17.3-1.9-18.9-.6-1.6-1-8-1-14.3V277l43.3.2 43.2.3 1.4 5zm144.3-3.8c1 .9 1.8 2.7 1.8 3.9 0 1.3.6 4.1 1.3 6.1 2.3 6.2 4.5 13.6 5.2 17 .4 1.8 1.1 3.5 1.6 3.8.5.4.9 1.6.9 2.8 0 2 .9 5.3 4.1 15.2.6 1.6 1.6 5 2.4 7.5.7 2.5 2 7 2.9 10 1 3 2.1 7.5 2.7 10 .5 2.4 1.4 4.9 1.9 5.4.6.6 1 2.1 1 3.5 0 1.5.7 3.9 1.5 5.5.8 1.5 1.5 3.6 1.5 4.5 0 .9.7 2.9 1.5 4.5.8 1.5 1.5 4 1.5 5.5 0 1.4.7 3.9 1.5 5.5.8 1.5 1.5 3.6 1.5 4.5 0 1.8 2.5 9.8 4.6 14.9 3.1 7.2.7 22.2-5.3 33.4-4 7.6-13.5 16.7-21.3 20.5-3.6 1.7-10 3.9-14.2 4.8-7.2 1.6-8.1 1.6-15.5-.1-11.4-2.5-19.7-6.8-26.9-14-5.8-5.9-12.4-16.9-12.4-20.6 0-.9-.4-2-1-2.3-.6-.3-1-4.8-1-9.9 0-5.1-.6-11.2-1.4-13.7-.7-2.4-2.1-8-3.1-12.4-.9-4.4-2.1-9.8-2.7-12-.5-2.2-1.4-6.9-2-10.5-.5-3.6-1.4-6.9-1.9-7.5-.5-.5-.9-2.3-.9-4.1 0-1.7-.6-5.4-1.4-8-1.9-6.4-3.5-13.7-4.6-20.1-.4-2.8-1.3-6.6-1.8-8.5-.6-1.8-1.6-6-2.2-9.3-.6-3.3-1.8-8.7-2.6-12-.8-3.3-1.9-8.5-2.4-11.5-.6-3-1.5-6.6-2-7.9-.6-1.3-.8-3.2-.5-4.2.6-1.8 2.4-1.9 43.2-1.9 38.3 0 42.8.2 44.5 1.7zM448.5 676v121.5l-136.9.3c-100.3.1-137.2-.1-138.2-.9-1.9-1.6-2.1-239.8-.2-241.7.9-.9 32.5-1.1 138.3-1l137 .3V676z"/></g></svg>