<svg version="1" xmlns="http://www.w3.org/2000/svg" width="800" height="800" viewBox="0 0 600.000000 600.000000"><path d="M232.5 66.2c-19.2 19.3-35.6 35.9-36.3 36.9-1.2 1.7-.4 2.8 7 10.6 11.8 12.4 13.7 17.4 10.2 26.5-4.5 11.6-16.9 16.9-27.7 11.9-2.3-1.1-7.6-5.4-11.7-9.5-4.1-4.2-8.1-7.6-8.8-7.6-1.8 0-73.2 71.4-73.2 73.2 0 .7 16.2 17.5 36 37.3 19.8 19.8 36.3 36.7 36.6 37.7.5 1.7-2.3 1.8-52.3 2l-52.8.3v105l13 .5c14.7.6 17.3 1.5 22.5 8 6 7.6 5.1 20-2.1 26.9-4.8 4.7-6.3 5.1-21.4 6l-12 .6v104h431v-104l-12-.6c-13.9-.7-16-1.2-19.8-4.8-5.5-5-7.1-8.9-7.1-16.6 0-6.3.3-7.5 2.9-10.9 4.8-6.4 9.4-8.6 17.3-8.6 8 0 10.5 1.4 20.7 11.9 3.3 3.3 6.6 6.1 7.5 6.1.8 0 18-16.5 38.3-36.8l36.7-36.7-152.2-152.3C339 99.5 269.8 31 269 31.1c-.8 0-17.2 15.8-36.5 35.1zm134.9 118.4c53.2 53.1 97.1 97.5 97.7 98.5 1 1.9-1.4 1.9-119.8 1.9H224.6l-37.8-37.7C166 226.5 149 208.8 149 207.9c0-.9 4.2-5.7 9.4-10.7l9.4-9.1 5.4 2.1c14 5.4 32.9 4.4 47.3-2.5 7.1-3.4 8.6-4.4 13.8-9.4 9.6-9.3 14.2-16.4 17.8-27.7 2.9-9.4 2.6-26.9-.6-36-1.9-5.5-2.2-7.3-1.3-8.5 3.5-4.7 17.5-18.1 18.9-18.1 1 0 45.2 43.5 98.3 96.6zm138.1 138c6.9 6.9 12.5 12.8 12.5 12.9 0 .2-4.3 4.7-9.6 9.9-7.4 7.5-10.1 9.6-12.3 9.6-1.5 0-3.2-.5-3.9-1.2-1.5-1.5-1.7-43.8-.2-43.8.6 0 6.6 5.7 13.5 12.6zm-54.7 16.6l-.3 14.3-5.5 2.7c-7.9 4.1-16.1 10.8-21.2 17.4-2.4 3.3-4.8 6.6-5.1 7.4l-1.5 3c-3.7 6.4-7.2 19.8-7.2 27.1.1 7 3.4 19.8 7.1 27.4 4.7 9.7 16.8 21.9 26.4 26.6l7 3.4.3 13.4c.2 10.1-.1 13.6-1 14.3-1.7 1-347.9 1-349.6-.1-1-.6-1.3-4.1-1.3-13.4 0-7 .2-13.1.6-13.6.3-.6 3.4-2.4 6.9-4.1 23.1-11.4 37.2-39.6 32.1-64.1-3.1-14.4-10.7-27.7-20.3-35.8-4.4-3.6-6-4.6-13.9-8.6l-5.2-2.6-.3-13.5c-.2-7.4-.1-13.9 0-14.4.3-.7 61.9-1 176.3-1h176l-.3 14.2z" fill="#fff"/></svg>