<svg version="1" xmlns="http://www.w3.org/2000/svg" width="1200" height="1200" viewBox="0 0 900.000000 900.000000"><g fill="#fff"><path d="M573.5 141.8c-1.6.4-4.4 1.5-6.1 2.4-3.3 1.8-13.3 12.4-13.5 14.2-.2 2.9-49.4 66.1-63.6 81.8-10.2 11.2-27.2 27.5-36.6 35.1-9 7.3-22.2 16.7-23.4 16.7-.4 0-1.4.6-2.2 1.4-1.6 1.3-8.4 5.2-16.6 9.4-17.3 8.9-42.3 17-64 20.6-23.4 4-24.7 4-154 4.6-132 .6-128.6.5-140 4.7-19.6 7.2-35.3 21.5-43.2 39.3-1.1 2.5-2.7 6.2-3.6 8.3-.9 2.1-1.7 4.5-1.7 5.3 0 .8-.6 3.6-1.4 6.2-3 9.8-3.8 21.4-3.3 45.2.6 27.8 1.5 34.2 7.2 49.9 9 24.8 25.3 42.4 48.5 52.4 12.3 5.2 22.1 6.7 45.1 6.7 17.4 0 19.8.2 21.1 1.7.8 1 4.8 7.3 8.9 14.1 4.1 6.8 8.2 13.5 9.1 15 1 1.5 2.2 3.6 2.8 4.7.6 1.1 1.9 3.3 3 5 1.1 1.6 2.4 3.9 3 5 .6 1.1 1.9 3.3 3 5 1.1 1.6 2.3 3.7 2.7 4.5.4.8 1.9 3.3 3.3 5.5s3 4.9 3.7 6c2.3 3.9 36.8 60.6 38.5 63.3 1 1.5 2.2 3.6 2.8 4.7.6 1.1 1.9 3.3 3 5 1.1 1.6 2.4 3.9 3 5 .6 1.1 1.9 3.3 3 5 1.1 1.6 2.3 3.7 2.7 4.5.4.8 1.8 3.1 3.1 5s2.8 4.4 3.3 5.5c.5 1.1 1.7 3.2 2.7 4.7.9 1.4 4.6 7.5 8.2 13.5 9.9 16.6 21.3 26.1 35.2 29.2 10 2.3 15.6 1 32.3-7.5 6.6-3.4 22.6-11.5 35.5-18.1 24.5-12.5 26.3-13.9 22.9-18-1.3-1.5-3.2-4.6-4.6-7.3-.4-.8-2.6-4.7-4.8-8.5-2.3-3.9-4.4-7.7-4.8-8.5-.4-.8-1.6-2.9-2.7-4.5-1.1-1.7-2.3-3.7-2.7-4.5-.4-.8-3.2-5.8-6.3-11-3.1-5.2-5.9-10.2-6.3-11-.4-.8-1.6-2.9-2.7-4.5-1.1-1.7-2.3-3.7-2.7-4.5-.4-.8-2.5-4.7-4.8-8.5-2.2-3.9-4.4-7.7-4.8-8.5-.4-.8-1.6-2.9-2.7-4.5-1.1-1.7-2.3-3.7-2.7-4.5-.4-.8-3.2-5.8-6.3-11-3.1-5.2-5.9-10.2-6.3-11-.4-.8-1.6-2.9-2.7-4.5-1.1-1.7-2.3-3.7-2.7-4.5-.4-.8-2.6-4.7-4.8-8.5-2.3-3.9-4.4-7.7-4.8-8.5-.4-.8-1.6-2.9-2.7-4.5-1.1-1.7-2.3-3.7-2.7-4.5-.4-.8-2.9-5.2-5.6-9.8-3-5-4.6-8.9-4.3-9.9.6-1.5 3.9-1.6 33.6-1 40.4.8 55 2.8 83.5 11.4 8.9 2.6 25 9.2 32.5 13.1 15.9 8.4 21.7 12 32.5 20.1 15.6 11.7 40.4 35.4 58 55.6 3.9 4.4 7.5 8.4 8.1 9 .6.5 5.3 5.9 10.5 12 5.2 6 10.5 12.1 11.8 13.5 3 3.2 12.4 14.7 17.9 21.9 2.3 3.1 7.2 8.4 10.7 11.7 10.2 9.8 18.8 12.9 28.2 10.4 10.9-3 16.3-8 19.3-17.8 2-6.3 2-10.3 2-273.1 0-266.5 0-266.8-2.1-273.3-2.2-7.2-6.8-13.3-12.5-16.8-2.7-1.7-5.4-2.3-11.7-2.5-4.5-.2-9.5-.1-11.2.3zM536 434c0 94.4-.4 148.1-1 148.5-.5.3-5.3-3.6-10.7-8.7-14-13.3-23.9-22-31.9-28-3.8-2.8-7.1-5.5-7.4-5.8-.6-.8-16.9-11.7-22-14.7-33-19.5-70.3-28.4-125.8-29.9-12.8-.4-23.5-1-23.7-1.5-.9-1.3-.6-114.2.2-115 .5-.4 12.1-1.2 25.8-1.8 36.5-1.6 55.1-4.4 80-11.8 11.9-3.5 30.5-11.5 38-16.3 1.7-1.1 3.9-2.4 5-3 3.3-1.6 5.3-3.1 18.5-12.8 14.4-10.7 24.6-19.7 41.4-36.4 6.5-6.4 12.3-11.5 12.7-11.2.5.3.9 65.6.9 148.4zm-347.9-46.9c6.2 2.7 8.9 6.8 8.9 13.7 0 4.2-.6 5.8-3.3 9.3-2 2.7-4.4 4.6-6.5 5.1-1.8.5-25.2.7-52 .6-48.4-.3-48.8-.3-51.5-2.5-5.5-4.3-7.1-7.3-7.1-13 0-4.4.4-5.7 2.9-8.4 6.6-6.9 5.8-6.9 57.3-6.9 45 0 46.5.1 51.3 2.1zm.7 66.2c5.8 3.1 8.2 6.9 8.2 13.4 0 4.3-.5 5.9-3.3 9.4-2 2.7-4.4 4.6-6.5 5.1-1.8.5-25.2.7-52 .6-48.4-.3-48.8-.3-51.5-2.5-5.5-4.3-7.1-7.3-7.1-13 0-4.4.4-5.7 2.9-8.4 6.6-6.9 5.8-6.9 58-6.9h47l4.3 2.3zM791.5 234.4c-6 1.7-9.8 4-13.8 8.5-6 6.6-7.7 11-7.7 19.4 0 9.9 2.2 14.7 11.4 24.5 20.2 21.6 34.9 44.7 44 68.9 3.8 10.3 4.5 12.1 5.9 17.3 6.8 24.1 8.1 33.5 8.1 59.5 0 26.6-1.4 37-8.1 60.5-4.8 17-15.4 39.7-26.1 56-5 7.5-18.5 24.7-21.6 27.5-3.8 3.4-10 11.5-11.6 15.3-2.6 5.8-2.7 16.6-.3 21.9 2.8 6.1 6.9 10.8 12.5 14.4 5 3.3 5.6 3.4 14.8 3.4 11.7-.1 14.6-1.4 24.6-11.7 15.1-15.6 28.7-33.4 38.7-50.8 3.5-6 14.9-29.3 17.1-35 1-2.5 2.3-5.6 2.8-7 1.3-3.4 4.2-12.4 6.1-19 .9-3 2.3-7.9 3.1-10.9.9-2.9 1.6-6.1 1.6-7 0-.9.6-4.8 1.5-8.6.8-3.9 1.7-10 2.1-13.8.4-4.8 1-6.7 2-6.7 2.1 0 2.1-55.5 0-56.3-.9-.4-1.6-2.9-2-7.4-1.2-13.1-7.2-39.6-11.2-49.1-.8-1.8-1.4-3.9-1.4-4.6 0-1.2-2.3-6.9-7.5-19.1-4.8-11-12.9-25.9-21.8-40-6.1-9.8-24-31.9-32.4-40.2-9.9-9.8-19.9-13-30.8-9.9z"/><path d="M704.5 303.9c-9.4 2.7-16.5 10-19.7 20.4-1.8 6.1-1.9 7.6-.9 12.1 1.7 7.2 4.4 12.4 9.6 17.9 20.8 22.1 31.5 48.6 31.5 78 0 12.6-2.1 27.7-4.9 34.9-5 12.8-7.1 17.5-10.2 22.3-1 1.6-2.3 3.9-2.8 5-.9 1.9-2.7 4.2-15.5 19.4-4.4 5.3-5.7 7.7-7.1 13.6-1.7 6.9-1.7 7.3 0 13.1 2.3 7.3 3.9 10 8.3 14.1 6.5 6 10.8 7.6 20.2 7.7 7 0 9.3-.5 13-2.4 8.5-4.4 26.9-25.8 35.6-41.5 3-5.5 8.3-16.5 9.8-20.3.9-2.3 2.3-5.9 3.1-8 1.4-3.8 3.2-9.8 5.9-20.7 6.9-28 4.5-65.9-6.1-95-2.5-6.7-9.8-22.5-12.6-27-10.3-16.7-14.5-22.3-25.1-33.3-8.1-8.3-12.2-10.3-21.6-10.8-4.1-.2-8.8.1-10.5.5z"/></g></svg>